# MagicaVoxel @ Ephtracy

# material
mtllib ¼ÍÄî±®.mtl
usemtl palette

# normals
vn -1 0 0
vn 1 0 0
vn 0 0 1
vn 0 0 -1
vn 0 -1 0
vn 0 1 0

# texcoords
vt 0.642578 0.5

# verts
v -25 0 9
v -25 0 -10
v -25 109 9
v -25 109 -10
v -22 109 9
v -22 109 -10
v -22 113 -8
v -22 113 -10
v -22 114 9
v -22 114 -8
v -19 112 9
v -19 112 -10
v -19 114 9
v -19 114 -10
v -18 114 9
v -18 114 -10
v -18 118 9
v -18 118 -10
v -14 118 9
v -14 118 -10
v -14 121 9
v -14 121 -10
v -9 121 9
v -9 121 -10
v -9 124 9
v -9 124 -10
v -5 124 9
v -5 124 -10
v -5 126 9
v -5 126 -10
v 16 53 9
v 16 53 -10
v 16 71 9
v 16 71 -10
v -20 112 9
v -20 112 -10
v -20 113 -8
v -20 113 -10
v -20 114 9
v -20 114 -8
v -14 53 9
v -14 53 -10
v -14 71 9
v -14 71 -10
v 6 124 9
v 6 124 -10
v 6 126 9
v 6 126 -10
v 10 121 9
v 10 121 -10
v 10 124 9
v 10 124 -10
v 12 118 9
v 12 118 -10
v 12 121 9
v 12 121 -10
v 16 114 9
v 16 114 -10
v 16 118 9
v 16 118 -10
v 19 110 3
v 19 110 2
v 19 111 3
v 19 111 2
v 19 112 9
v 19 112 -10
v 19 114 9
v 19 114 -10
v 20 110 9
v 20 110 3
v 20 110 2
v 20 110 -10
v 20 111 3
v 20 111 2
v 20 112 9
v 20 112 -10
v 25 0 9
v 25 0 -10
v 25 110 9
v 25 110 -10
v -25 0 9
v -25 109 9
v -22 109 9
v -22 114 9
v -20 112 9
v -20 114 9
v -19 112 9
v -19 114 9
v -18 114 9
v -18 118 9
v -14 53 9
v -14 71 9
v -14 118 9
v -14 121 9
v -9 121 9
v -9 124 9
v -5 124 9
v -5 126 9
v 6 124 9
v 6 126 9
v 10 121 9
v 10 124 9
v 12 118 9
v 12 121 9
v 16 53 9
v 16 71 9
v 16 114 9
v 16 118 9
v 19 112 9
v 19 114 9
v 20 110 9
v 20 112 9
v 25 0 9
v 25 110 9
v 19 110 2
v 19 111 2
v 20 110 2
v 20 111 2
v 19 110 3
v 19 111 3
v 20 110 3
v 20 111 3
v -22 113 -8
v -22 114 -8
v -20 113 -8
v -20 114 -8
v -25 0 -10
v -25 109 -10
v -22 109 -10
v -22 113 -10
v -20 112 -10
v -20 113 -10
v -19 112 -10
v -19 114 -10
v -18 114 -10
v -18 118 -10
v -14 53 -10
v -14 71 -10
v -14 118 -10
v -14 121 -10
v -9 121 -10
v -9 124 -10
v -5 124 -10
v -5 126 -10
v 6 124 -10
v 6 126 -10
v 10 121 -10
v 10 124 -10
v 12 118 -10
v 12 121 -10
v 16 53 -10
v 16 71 -10
v 16 114 -10
v 16 118 -10
v 19 112 -10
v 19 114 -10
v 20 110 -10
v 20 112 -10
v 25 0 -10
v 25 110 -10
v -25 0 9
v 25 0 9
v -25 0 -10
v 25 0 -10
v -14 71 9
v 16 71 9
v -14 71 -10
v 16 71 -10
v 19 111 3
v 20 111 3
v 19 111 2
v 20 111 2
v -14 53 9
v 16 53 9
v -14 53 -10
v 16 53 -10
v -25 109 9
v -22 109 9
v -25 109 -10
v -22 109 -10
v 20 110 9
v 25 110 9
v 19 110 3
v 20 110 3
v 19 110 2
v 20 110 2
v 20 110 -10
v 25 110 -10
v -20 112 9
v -19 112 9
v 19 112 9
v 20 112 9
v -20 112 -10
v -19 112 -10
v 19 112 -10
v 20 112 -10
v -22 113 -8
v -20 113 -8
v -22 113 -10
v -20 113 -10
v -22 114 9
v -20 114 9
v -19 114 9
v -18 114 9
v 16 114 9
v 19 114 9
v -22 114 -8
v -20 114 -8
v -19 114 -10
v -18 114 -10
v 16 114 -10
v 19 114 -10
v -18 118 9
v -14 118 9
v 12 118 9
v 16 118 9
v -18 118 -10
v -14 118 -10
v 12 118 -10
v 16 118 -10
v -14 121 9
v -9 121 9
v 10 121 9
v 12 121 9
v -14 121 -10
v -9 121 -10
v 10 121 -10
v 12 121 -10
v -9 124 9
v -5 124 9
v 6 124 9
v 10 124 9
v -9 124 -10
v -5 124 -10
v 6 124 -10
v 10 124 -10
v -5 126 9
v 6 126 9
v -5 126 -10
v 6 126 -10

# faces
f 3/1/1 2/1/1 1/1/1
f 4/1/1 2/1/1 3/1/1
f 7/1/1 6/1/1 5/1/1
f 8/1/1 6/1/1 7/1/1
f 9/1/1 7/1/1 5/1/1
f 10/1/1 7/1/1 9/1/1
f 13/1/1 12/1/1 11/1/1
f 14/1/1 12/1/1 13/1/1
f 17/1/1 16/1/1 15/1/1
f 18/1/1 16/1/1 17/1/1
f 21/1/1 20/1/1 19/1/1
f 22/1/1 20/1/1 21/1/1
f 25/1/1 24/1/1 23/1/1
f 26/1/1 24/1/1 25/1/1
f 29/1/1 28/1/1 27/1/1
f 30/1/1 28/1/1 29/1/1
f 33/1/1 32/1/1 31/1/1
f 34/1/1 32/1/1 33/1/1
f 35/1/2 36/1/2 37/1/2
f 37/1/2 36/1/2 38/1/2
f 35/1/2 37/1/2 39/1/2
f 39/1/2 37/1/2 40/1/2
f 41/1/2 42/1/2 43/1/2
f 43/1/2 42/1/2 44/1/2
f 45/1/2 46/1/2 47/1/2
f 47/1/2 46/1/2 48/1/2
f 49/1/2 50/1/2 51/1/2
f 51/1/2 50/1/2 52/1/2
f 53/1/2 54/1/2 55/1/2
f 55/1/2 54/1/2 56/1/2
f 57/1/2 58/1/2 59/1/2
f 59/1/2 58/1/2 60/1/2
f 61/1/2 62/1/2 63/1/2
f 63/1/2 62/1/2 64/1/2
f 65/1/2 66/1/2 67/1/2
f 67/1/2 66/1/2 68/1/2
f 69/1/2 70/1/2 73/1/2
f 71/1/2 72/1/2 74/1/2
f 69/1/2 73/1/2 75/1/2
f 73/1/2 74/1/2 75/1/2
f 74/1/2 72/1/2 76/1/2
f 75/1/2 74/1/2 76/1/2
f 77/1/2 78/1/2 79/1/2
f 79/1/2 78/1/2 80/1/2
f 83/1/3 82/1/3 81/1/3
f 85/1/3 84/1/3 83/1/3
f 86/1/3 84/1/3 85/1/3
f 87/1/3 85/1/3 83/1/3
f 89/1/3 88/1/3 87/1/3
f 91/1/3 83/1/3 81/1/3
f 91/1/3 90/1/3 89/1/3
f 91/1/3 87/1/3 83/1/3
f 91/1/3 89/1/3 87/1/3
f 92/1/3 90/1/3 91/1/3
f 93/1/3 90/1/3 92/1/3
f 95/1/3 94/1/3 93/1/3
f 95/1/3 93/1/3 92/1/3
f 97/1/3 96/1/3 95/1/3
f 99/1/3 97/1/3 95/1/3
f 99/1/3 98/1/3 97/1/3
f 100/1/3 98/1/3 99/1/3
f 101/1/3 95/1/3 92/1/3
f 101/1/3 99/1/3 95/1/3
f 102/1/3 99/1/3 101/1/3
f 103/1/3 101/1/3 92/1/3
f 104/1/3 101/1/3 103/1/3
f 105/1/3 91/1/3 81/1/3
f 106/1/3 103/1/3 92/1/3
f 107/1/3 103/1/3 106/1/3
f 108/1/3 103/1/3 107/1/3
f 109/1/3 106/1/3 105/1/3
f 109/1/3 107/1/3 106/1/3
f 110/1/3 107/1/3 109/1/3
f 111/1/3 109/1/3 105/1/3
f 112/1/3 109/1/3 111/1/3
f 113/1/3 105/1/3 81/1/3
f 113/1/3 111/1/3 105/1/3
f 114/1/3 111/1/3 113/1/3
f 117/1/3 116/1/3 115/1/3
f 118/1/3 116/1/3 117/1/3
f 119/1/4 120/1/4 121/1/4
f 121/1/4 120/1/4 122/1/4
f 123/1/4 124/1/4 125/1/4
f 125/1/4 124/1/4 126/1/4
f 127/1/4 128/1/4 129/1/4
f 129/1/4 130/1/4 131/1/4
f 131/1/4 130/1/4 132/1/4
f 129/1/4 131/1/4 133/1/4
f 133/1/4 134/1/4 135/1/4
f 127/1/4 129/1/4 137/1/4
f 135/1/4 136/1/4 137/1/4
f 133/1/4 135/1/4 137/1/4
f 129/1/4 133/1/4 137/1/4
f 137/1/4 136/1/4 138/1/4
f 138/1/4 136/1/4 139/1/4
f 139/1/4 140/1/4 141/1/4
f 138/1/4 139/1/4 141/1/4
f 141/1/4 142/1/4 143/1/4
f 141/1/4 143/1/4 145/1/4
f 143/1/4 144/1/4 145/1/4
f 145/1/4 144/1/4 146/1/4
f 138/1/4 141/1/4 147/1/4
f 141/1/4 145/1/4 147/1/4
f 147/1/4 145/1/4 148/1/4
f 138/1/4 147/1/4 149/1/4
f 149/1/4 147/1/4 150/1/4
f 127/1/4 137/1/4 151/1/4
f 138/1/4 149/1/4 152/1/4
f 152/1/4 149/1/4 153/1/4
f 153/1/4 149/1/4 154/1/4
f 151/1/4 152/1/4 155/1/4
f 152/1/4 153/1/4 155/1/4
f 155/1/4 153/1/4 156/1/4
f 151/1/4 155/1/4 157/1/4
f 157/1/4 155/1/4 158/1/4
f 127/1/4 151/1/4 159/1/4
f 151/1/4 157/1/4 159/1/4
f 159/1/4 157/1/4 160/1/4
f 163/1/5 162/1/5 161/1/5
f 164/1/5 162/1/5 163/1/5
f 167/1/5 166/1/5 165/1/5
f 168/1/5 166/1/5 167/1/5
f 171/1/5 170/1/5 169/1/5
f 172/1/5 170/1/5 171/1/5
f 173/1/6 174/1/6 175/1/6
f 175/1/6 174/1/6 176/1/6
f 177/1/6 178/1/6 179/1/6
f 179/1/6 178/1/6 180/1/6
f 181/1/6 182/1/6 184/1/6
f 183/1/6 184/1/6 185/1/6
f 184/1/6 182/1/6 186/1/6
f 185/1/6 184/1/6 186/1/6
f 186/1/6 182/1/6 187/1/6
f 187/1/6 182/1/6 188/1/6
f 189/1/6 190/1/6 193/1/6
f 193/1/6 190/1/6 194/1/6
f 191/1/6 192/1/6 195/1/6
f 195/1/6 192/1/6 196/1/6
f 197/1/6 198/1/6 199/1/6
f 199/1/6 198/1/6 200/1/6
f 201/1/6 202/1/6 207/1/6
f 207/1/6 202/1/6 208/1/6
f 203/1/6 204/1/6 209/1/6
f 209/1/6 204/1/6 210/1/6
f 205/1/6 206/1/6 211/1/6
f 211/1/6 206/1/6 212/1/6
f 213/1/6 214/1/6 217/1/6
f 217/1/6 214/1/6 218/1/6
f 215/1/6 216/1/6 219/1/6
f 219/1/6 216/1/6 220/1/6
f 221/1/6 222/1/6 225/1/6
f 225/1/6 222/1/6 226/1/6
f 223/1/6 224/1/6 227/1/6
f 227/1/6 224/1/6 228/1/6
f 229/1/6 230/1/6 233/1/6
f 233/1/6 230/1/6 234/1/6
f 231/1/6 232/1/6 235/1/6
f 235/1/6 232/1/6 236/1/6
f 237/1/6 238/1/6 239/1/6
f 239/1/6 238/1/6 240/1/6
