# MagicaVoxel @ Ephtracy

# material
mtllib chr_man.mtl
usemtl palette

# normals
vn -1 0 0
vn 1 0 0
vn 0 0 1
vn 0 0 -1
vn 0 -1 0
vn 0 1 0

# texcoords
vt 0.0332031 0.5
vt 0.0605469 0.5
vt 0.310547 0.5
vt 0.341797 0.5
vt 0.478516 0.5
vt 0.482422 0.5
vt 0.646484 0.5
vt 0.787109 0.5
vt 0.814453 0.5
vt 0.982422 0.5
vt 0.986328 0.5
vt 0.990234 0.5
vt 0.994141 0.5

# verts
v -4 2 0.5
v -4 2 -0.5
v -4 3 0.5
v -4 3 -0.5
v -4 6 2.5
v -4 6 0.5
v -4 6 -0.5
v -4 6 -1.5
v -4 7 2.5
v -4 7 0.5
v -4 7 -0.5
v -4 8 3.5
v -4 8 2.5
v -4 8 0.5
v -4 8 -0.5
v -4 10 3.5
v -4 10 0.5
v -4 10 -0.5
v -4 10 -1.5
v -4 11 0.5
v -4 11 -0.5
v -3 1 1.5
v -3 1 -1.5
v -3 2 2.5
v -3 2 1.5
v -3 2 0.5
v -3 2 -0.5
v -3 2 -1.5
v -3 2 -2.5
v -3 3 2.5
v -3 3 0.5
v -3 3 -0.5
v -3 3 -2.5
v -3 6 2.5
v -3 6 0.5
v -3 6 -0.5
v -3 6 -1.5
v -3 6 -2.5
v -3 7 0.5
v -3 7 -0.5
v -3 10 1.5
v -3 10 0.5
v -3 10 -0.5
v -3 10 -1.5
v -3 11 1.5
v -3 11 0.5
v -3 11 -0.5
v -3 11 -1.5
v -3 11 -2.5
v -3 12 0.5
v -3 12 -1.5
v -2 0 0.5
v -2 0 -0.5
v -2 1 0.5
v -2 1 -0.5
v -2 6 -2.5
v -2 6 -3.5
v -2 10 2.5
v -2 10 1.5
v -2 11 2.5
v -2 11 1.5
v -2 11 0.5
v -2 11 -1.5
v -2 11 -2.5
v -2 11 -3.5
v -2 12 1.5
v -2 12 0.5
v -2 12 -1.5
v -2 12 -2.5
v 1 0 0.5
v 1 0 -0.5
v 1 1 1.5
v 1 1 0.5
v 1 1 -0.5
v 1 1 -1.5
v 1 2 1.5
v 1 2 0.5
v 1 2 -0.5
v 1 2 -1.5
v 1 12 0.5
v 1 12 -0.5
v 1 12 -1.5
v 1 13 0.5
v 1 13 -0.5
v 1 13 -1.5
v 3 6 2.5
v 3 6 1.5
v 3 7 2.5
v 3 7 1.5
v 3 9 2.5
v 3 9 1.5
v -3 6 2.5
v -3 6 1.5
v -3 7 2.5
v -3 7 1.5
v -3 8 3.5
v -3 8 2.5
v -3 9 3.5
v -3 9 1.5
v -1 0 0.5
v -1 0 -0.5
v -1 1 1.5
v -1 1 0.5
v -1 1 -0.5
v -1 1 -1.5
v -1 2 1.5
v -1 2 0.5
v -1 2 -0.5
v -1 2 -1.5
v 2 0 0.5
v 2 0 -0.5
v 2 1 0.5
v 2 1 -0.5
v 2 6 -2.5
v 2 6 -3.5
v 2 10 -2.5
v 2 11 1.5
v 2 11 0.5
v 2 11 -1.5
v 2 11 -2.5
v 2 11 -3.5
v 2 12 1.5
v 2 12 0.5
v 2 12 -0.5
v 2 12 -1.5
v 2 12 -2.5
v 2 13 0.5
v 2 13 -0.5
v 2 13 -1.5
v 3 1 1.5
v 3 1 -1.5
v 3 2 2.5
v 3 2 1.5
v 3 2 0.5
v 3 2 -0.5
v 3 2 -1.5
v 3 2 -2.5
v 3 3 2.5
v 3 3 0.5
v 3 3 -0.5
v 3 3 -2.5
v 3 6 2.5
v 3 6 0.5
v 3 6 -0.5
v 3 6 -1.5
v 3 6 -2.5
v 3 7 0.5
v 3 7 -0.5
v 3 9 3.5
v 3 9 2.5
v 3 9 -1.5
v 3 10 3.5
v 3 10 2.5
v 3 10 -1.5
v 3 10 -2.5
v 3 11 0.5
v 3 11 -0.5
v 3 11 -1.5
v 3 11 -2.5
v 3 12 0.5
v 3 12 -0.5
v 3 12 -1.5
v 4 2 0.5
v 4 2 -0.5
v 4 3 0.5
v 4 3 -0.5
v 4 6 2.5
v 4 6 0.5
v 4 6 -0.5
v 4 6 -1.5
v 4 7 2.5
v 4 7 1.5
v 4 7 0.5
v 4 7 -0.5
v 4 8 0.5
v 4 8 -0.5
v 4 9 -0.5
v 4 9 -1.5
v 4 10 1.5
v 4 10 0.5
v 4 11 2.5
v 4 11 0.5
v 4 11 -1.5
v -4 8 3.5
v -4 10 3.5
v -3 8 3.5
v -3 9 3.5
v 3 9 3.5
v 3 10 3.5
v -4 6 2.5
v -4 7 2.5
v -4 8 2.5
v -3 2 2.5
v -3 3 2.5
v -3 6 2.5
v -3 7 2.5
v -3 8 2.5
v -2 10 2.5
v -2 11 2.5
v -1 3 2.5
v -1 6 2.5
v 0 2 2.5
v 0 3 2.5
v 0 5 2.5
v 0 10 2.5
v 0 11 2.5
v 1 3 2.5
v 1 5 2.5
v 1 6 2.5
v 1 10 2.5
v 1 11 2.5
v 3 2 2.5
v 3 3 2.5
v 3 6 2.5
v 3 7 2.5
v 3 9 2.5
v 3 10 2.5
v 4 6 2.5
v 4 7 2.5
v 4 11 2.5
v -3 1 1.5
v -3 2 1.5
v -3 6 1.5
v -3 7 1.5
v -3 9 1.5
v -3 10 1.5
v -3 11 1.5
v -2 7 1.5
v -2 8 1.5
v -2 10 1.5
v -2 11 1.5
v -2 12 1.5
v -1 1 1.5
v -1 2 1.5
v -1 6 1.5
v -1 7 1.5
v -1 8 1.5
v -1 9 1.5
v -1 11 1.5
v -1 12 1.5
v 0 11 1.5
v 1 1 1.5
v 1 2 1.5
v 1 6 1.5
v 1 7 1.5
v 1 8 1.5
v 1 11 1.5
v 1 12 1.5
v 2 7 1.5
v 2 8 1.5
v 2 11 1.5
v 2 12 1.5
v 3 1 1.5
v 3 2 1.5
v 3 6 1.5
v 3 7 1.5
v 3 9 1.5
v -4 2 0.5
v -4 3 0.5
v -4 6 0.5
v -4 10 0.5
v -4 11 0.5
v -3 2 0.5
v -3 3 0.5
v -3 6 0.5
v -3 10 0.5
v -3 11 0.5
v -3 12 0.5
v -2 0 0.5
v -2 1 0.5
v -2 11 0.5
v -2 12 0.5
v -1 0 0.5
v -1 1 0.5
v 1 0 0.5
v 1 1 0.5
v 1 12 0.5
v 1 13 0.5
v 2 0 0.5
v 2 1 0.5
v 2 11 0.5
v 2 12 0.5
v 2 13 0.5
v 3 2 0.5
v 3 3 0.5
v 3 6 0.5
v 3 11 0.5
v 3 12 0.5
v 4 2 0.5
v 4 3 0.5
v 4 6 0.5
v -4 6 -0.5
v -4 7 -0.5
v -3 6 -0.5
v -3 7 -0.5
v 3 6 -0.5
v 3 7 -0.5
v 4 6 -0.5
v 4 7 -0.5
v -4 6 0.5
v -4 7 0.5
v -3 6 0.5
v -3 7 0.5
v 3 6 0.5
v 3 7 0.5
v 4 6 0.5
v 4 7 0.5
v -4 2 -0.5
v -4 3 -0.5
v -4 6 -0.5
v -4 10 -0.5
v -4 11 -0.5
v -3 2 -0.5
v -3 3 -0.5
v -3 6 -0.5
v -3 10 -0.5
v -3 11 -0.5
v -2 0 -0.5
v -2 1 -0.5
v -1 0 -0.5
v -1 1 -0.5
v 1 0 -0.5
v 1 1 -0.5
v 2 0 -0.5
v 2 1 -0.5
v 3 2 -0.5
v 3 3 -0.5
v 3 6 -0.5
v 4 2 -0.5
v 4 3 -0.5
v 4 6 -0.5
v -4 6 -1.5
v -4 10 -1.5
v -3 1 -1.5
v -3 2 -1.5
v -3 6 -1.5
v -3 10 -1.5
v -3 11 -1.5
v -3 12 -1.5
v -2 11 -1.5
v -2 12 -1.5
v -1 1 -1.5
v -1 2 -1.5
v 1 1 -1.5
v 1 2 -1.5
v 1 12 -1.5
v 1 13 -1.5
v 2 11 -1.5
v 2 12 -1.5
v 2 13 -1.5
v 3 1 -1.5
v 3 2 -1.5
v 3 6 -1.5
v 3 9 -1.5
v 3 10 -1.5
v 3 11 -1.5
v 3 12 -1.5
v 4 6 -1.5
v 4 9 -1.5
v 4 11 -1.5
v -3 2 -2.5
v -3 3 -2.5
v -3 6 -2.5
v -3 11 -2.5
v -2 6 -2.5
v -2 11 -2.5
v -2 12 -2.5
v 0 11 -2.5
v 0 12 -2.5
v 2 6 -2.5
v 2 10 -2.5
v 2 11 -2.5
v 2 12 -2.5
v 3 2 -2.5
v 3 3 -2.5
v 3 6 -2.5
v 3 10 -2.5
v 3 11 -2.5
v -2 6 -3.5
v -2 11 -3.5
v 2 6 -3.5
v 2 11 -3.5
v -2 0 0.5
v -1 0 0.5
v 1 0 0.5
v 2 0 0.5
v -2 0 -0.5
v -1 0 -0.5
v 1 0 -0.5
v 2 0 -0.5
v -3 1 1.5
v -1 1 1.5
v 1 1 1.5
v 3 1 1.5
v -2 1 0.5
v -1 1 0.5
v 1 1 0.5
v 2 1 0.5
v -2 1 -0.5
v -1 1 -0.5
v 1 1 -0.5
v 2 1 -0.5
v -3 1 -1.5
v -1 1 -1.5
v 1 1 -1.5
v 3 1 -1.5
v -3 2 2.5
v 0 2 2.5
v 3 2 2.5
v -3 2 1.5
v -1 2 1.5
v 1 2 1.5
v 3 2 1.5
v -4 2 0.5
v -3 2 0.5
v -1 2 0.5
v 0 2 0.5
v 1 2 0.5
v 3 2 0.5
v 4 2 0.5
v -4 2 -0.5
v -3 2 -0.5
v -1 2 -0.5
v 1 2 -0.5
v 3 2 -0.5
v 4 2 -0.5
v -3 2 -1.5
v -1 2 -1.5
v 1 2 -1.5
v 3 2 -1.5
v -3 2 -2.5
v 3 2 -2.5
v -4 6 2.5
v -3 6 2.5
v 3 6 2.5
v 4 6 2.5
v -4 6 0.5
v -3 6 0.5
v 3 6 0.5
v 4 6 0.5
v -4 6 -0.5
v -3 6 -0.5
v 3 6 -0.5
v 4 6 -0.5
v -4 6 -1.5
v -3 6 -1.5
v 3 6 -1.5
v 4 6 -1.5
v -2 6 -2.5
v 2 6 -2.5
v -2 6 -3.5
v 2 6 -3.5
v -4 7 0.5
v -3 7 0.5
v 3 7 0.5
v 4 7 0.5
v -4 7 -0.5
v -3 7 -0.5
v 3 7 -0.5
v 4 7 -0.5
v -4 8 3.5
v -3 8 3.5
v -4 8 2.5
v -3 8 2.5
v -3 9 3.5
v 3 9 3.5
v -1 9 2.5
v 3 9 2.5
v -3 9 1.5
v -1 9 1.5
v 3 9 1.5
v -3 6 2.5
v -1 6 2.5
v 1 6 2.5
v 3 6 2.5
v -3 6 1.5
v -1 6 1.5
v 1 6 1.5
v 3 6 1.5
v -4 6 0.5
v -3 6 0.5
v 3 6 0.5
v 4 6 0.5
v -4 6 -0.5
v -3 6 -0.5
v 3 6 -0.5
v 4 6 -0.5
v -4 10 3.5
v 3 10 3.5
v -2 10 2.5
v 0 10 2.5
v 1 10 2.5
v 3 10 2.5
v -3 10 1.5
v -2 10 1.5
v -4 10 0.5
v -3 10 0.5
v -4 10 -0.5
v -3 10 -0.5
v -4 10 -1.5
v -3 10 -1.5
v -2 11 2.5
v 0 11 2.5
v 1 11 2.5
v 4 11 2.5
v -3 11 1.5
v -2 11 1.5
v -1 11 1.5
v 0 11 1.5
v 1 11 1.5
v 2 11 1.5
v -4 11 0.5
v -3 11 0.5
v -2 11 0.5
v 2 11 0.5
v 3 11 0.5
v 4 11 0.5
v -4 11 -0.5
v -3 11 -0.5
v 3 11 -0.5
v -3 11 -1.5
v -2 11 -1.5
v 2 11 -1.5
v 3 11 -1.5
v 4 11 -1.5
v -3 11 -2.5
v -2 11 -2.5
v 0 11 -2.5
v 2 11 -2.5
v 3 11 -2.5
v -2 11 -3.5
v 2 11 -3.5
v -2 12 1.5
v -1 12 1.5
v 1 12 1.5
v 2 12 1.5
v -3 12 0.5
v -2 12 0.5
v 1 12 0.5
v 2 12 0.5
v 3 12 0.5
v 1 12 -0.5
v 2 12 -0.5
v 3 12 -0.5
v -3 12 -1.5
v -2 12 -1.5
v -1 12 -1.5
v 0 12 -1.5
v 1 12 -1.5
v 2 12 -1.5
v 3 12 -1.5
v -2 12 -2.5
v 0 12 -2.5
v 2 12 -2.5
v 1 13 0.5
v 2 13 0.5
v 1 13 -0.5
v 2 13 -0.5
v 1 13 -1.5
v 2 13 -1.5

# faces
f 3/1/1 2/1/1 1/1/1
f 4/1/1 2/1/1 3/1/1
f 6/9/1 4/9/1 3/9/1
f 7/9/1 4/9/1 6/9/1
f 9/13/1 6/13/1 5/13/1
f 10/13/1 6/13/1 9/13/1
f 11/12/1 8/12/1 7/12/1
f 13/12/1 10/12/1 9/12/1
f 14/2/1 11/2/1 10/2/1
f 14/12/1 10/12/1 13/12/1
f 15/12/1 8/12/1 11/12/1
f 15/2/1 11/2/1 14/2/1
f 16/12/1 13/12/1 12/12/1
f 16/12/1 14/12/1 13/12/1
f 16/12/1 15/12/1 14/12/1
f 17/12/1 15/12/1 16/12/1
f 18/12/1 8/12/1 15/12/1
f 18/12/1 15/12/1 17/12/1
f 19/12/1 8/12/1 18/12/1
f 20/12/1 18/12/1 17/12/1
f 21/12/1 18/12/1 20/12/1
f 25/5/1 23/5/1 22/5/1
f 26/5/1 23/5/1 25/5/1
f 27/5/1 23/5/1 26/5/1
f 28/5/1 23/5/1 27/5/1
f 30/5/1 25/5/1 24/5/1
f 30/5/1 26/5/1 25/5/1
f 31/5/1 26/5/1 30/5/1
f 32/5/1 29/5/1 28/5/1
f 32/5/1 28/5/1 27/5/1
f 33/5/1 29/5/1 32/5/1
f 34/7/1 31/7/1 30/7/1
f 35/7/1 31/7/1 34/7/1
f 36/7/1 33/7/1 32/7/1
f 37/7/1 33/7/1 36/7/1
f 38/7/1 33/7/1 37/7/1
f 39/12/1 36/12/1 35/12/1
f 40/12/1 36/12/1 39/12/1
f 44/12/1 38/12/1 37/12/1
f 45/12/1 42/12/1 41/12/1
f 46/12/1 42/12/1 45/12/1
f 47/12/1 44/12/1 43/12/1
f 48/12/1 38/12/1 44/12/1
f 48/12/1 44/12/1 47/12/1
f 49/12/1 38/12/1 48/12/1
f 50/12/1 47/12/1 46/12/1
f 50/12/1 48/12/1 47/12/1
f 51/12/1 48/12/1 50/12/1
f 54/8/1 53/8/1 52/8/1
f 55/8/1 53/8/1 54/8/1
f 60/12/1 59/12/1 58/12/1
f 61/12/1 59/12/1 60/12/1
f 64/12/1 57/12/1 56/12/1
f 65/12/1 57/12/1 64/12/1
f 66/12/1 62/12/1 61/12/1
f 67/12/1 62/12/1 66/12/1
f 68/12/1 64/12/1 63/12/1
f 69/12/1 64/12/1 68/12/1
f 73/8/1 71/8/1 70/8/1
f 74/8/1 71/8/1 73/8/1
f 76/5/1 73/5/1 72/5/1
f 77/4/1 74/4/1 73/4/1
f 77/5/1 73/5/1 76/5/1
f 78/5/1 75/5/1 74/5/1
f 78/4/1 74/4/1 77/4/1
f 79/5/1 75/5/1 78/5/1
f 83/10/1 81/10/1 80/10/1
f 84/11/1 82/11/1 81/11/1
f 84/10/1 81/10/1 83/10/1
f 85/11/1 82/11/1 84/11/1
f 88/11/1 87/11/1 86/11/1
f 89/11/1 87/11/1 88/11/1
f 90/10/1 89/10/1 88/10/1
f 91/10/1 89/10/1 90/10/1
f 92/13/2 93/13/2 94/13/2
f 94/13/2 93/13/2 95/13/2
f 94/12/2 95/12/2 97/12/2
f 96/12/2 97/12/2 98/12/2
f 97/12/2 95/12/2 99/12/2
f 98/12/2 97/12/2 99/12/2
f 100/8/2 101/8/2 103/8/2
f 103/8/2 101/8/2 104/8/2
f 102/5/2 103/5/2 106/5/2
f 103/6/2 104/6/2 107/6/2
f 106/5/2 103/5/2 107/5/2
f 104/5/2 105/5/2 108/5/2
f 107/6/2 104/6/2 108/6/2
f 108/5/2 105/5/2 109/5/2
f 110/8/2 111/8/2 112/8/2
f 112/8/2 111/8/2 113/8/2
f 114/12/2 115/12/2 116/12/2
f 116/12/2 115/12/2 120/12/2
f 120/12/2 115/12/2 121/12/2
f 117/10/2 118/10/2 122/10/2
f 122/10/2 118/10/2 123/10/2
f 119/11/2 120/11/2 125/11/2
f 125/11/2 120/11/2 126/11/2
f 123/10/2 124/10/2 127/10/2
f 124/11/2 125/11/2 128/11/2
f 127/10/2 124/10/2 128/10/2
f 128/11/2 125/11/2 129/11/2
f 130/5/2 131/5/2 133/5/2
f 133/5/2 131/5/2 134/5/2
f 134/5/2 131/5/2 135/5/2
f 135/5/2 131/5/2 136/5/2
f 132/3/2 133/3/2 138/3/2
f 133/3/2 134/3/2 138/3/2
f 138/3/2 134/3/2 139/3/2
f 136/5/2 137/5/2 140/5/2
f 135/5/2 136/5/2 140/5/2
f 140/5/2 137/5/2 141/5/2
f 138/5/2 139/5/2 142/5/2
f 142/5/2 139/5/2 143/5/2
f 140/7/2 141/7/2 144/7/2
f 144/7/2 141/7/2 145/7/2
f 145/7/2 141/7/2 146/7/2
f 143/12/2 144/12/2 147/12/2
f 147/12/2 144/12/2 148/12/2
f 145/12/2 146/12/2 151/12/2
f 149/12/2 150/12/2 152/12/2
f 152/12/2 150/12/2 153/12/2
f 151/12/2 146/12/2 154/12/2
f 154/12/2 146/12/2 155/12/2
f 154/11/2 155/11/2 158/11/2
f 158/11/2 155/11/2 159/11/2
f 156/10/2 157/10/2 160/10/2
f 157/11/2 158/11/2 161/11/2
f 160/10/2 157/10/2 161/10/2
f 161/11/2 158/11/2 162/11/2
f 163/1/2 164/1/2 165/1/2
f 165/1/2 164/1/2 166/1/2
f 165/9/2 166/9/2 168/9/2
f 168/9/2 166/9/2 169/9/2
f 167/11/2 168/11/2 171/11/2
f 171/11/2 168/11/2 172/11/2
f 172/11/2 168/11/2 173/11/2
f 169/12/2 170/12/2 174/12/2
f 172/11/2 173/11/2 175/11/2
f 173/2/2 174/2/2 175/2/2
f 174/12/2 170/12/2 176/12/2
f 175/2/2 174/2/2 176/2/2
f 175/11/2 176/11/2 177/11/2
f 176/12/2 170/12/2 177/12/2
f 177/12/2 170/12/2 178/12/2
f 172/11/2 175/11/2 179/11/2
f 171/10/2 172/10/2 179/10/2
f 177/11/2 178/11/2 179/11/2
f 175/11/2 177/11/2 179/11/2
f 179/11/2 178/11/2 180/11/2
f 171/10/2 179/10/2 181/10/2
f 179/10/2 180/10/2 181/10/2
f 180/11/2 178/11/2 182/11/2
f 181/10/2 180/10/2 182/10/2
f 182/11/2 178/11/2 183/11/2
f 186/12/3 185/12/3 184/12/3
f 187/12/3 185/12/3 186/12/3
f 188/12/3 185/12/3 187/12/3
f 189/12/3 185/12/3 188/12/3
f 195/13/3 191/13/3 190/13/3
f 196/12/3 192/12/3 191/12/3
f 196/13/3 191/13/3 195/13/3
f 197/12/3 192/12/3 196/12/3
f 200/5/3 194/5/3 193/5/3
f 200/7/3 195/7/3 194/7/3
f 201/7/3 195/7/3 200/7/3
f 202/5/3 200/5/3 193/5/3
f 203/9/3 201/9/3 200/9/3
f 203/5/3 200/5/3 202/5/3
f 204/9/3 201/9/3 203/9/3
f 205/12/3 199/12/3 198/12/3
f 206/12/3 199/12/3 205/12/3
f 207/7/3 204/7/3 203/7/3
f 207/3/3 203/3/3 202/3/3
f 208/9/3 201/9/3 204/9/3
f 208/7/3 204/7/3 207/7/3
f 209/9/3 201/9/3 208/9/3
f 210/11/3 206/11/3 205/11/3
f 211/11/3 206/11/3 210/11/3
f 212/3/3 207/3/3 202/3/3
f 213/5/3 209/5/3 208/5/3
f 213/3/3 207/3/3 212/3/3
f 213/5/3 208/5/3 207/5/3
f 214/5/3 209/5/3 213/5/3
f 217/10/3 211/10/3 210/10/3
f 218/11/3 215/11/3 214/11/3
f 219/10/3 216/10/3 215/10/3
f 219/11/3 215/11/3 218/11/3
f 219/10/3 217/10/3 216/10/3
f 220/10/3 211/10/3 217/10/3
f 220/10/3 217/10/3 219/10/3
f 228/2/3 224/2/3 223/2/3
f 228/2/3 225/2/3 224/2/3
f 229/2/3 225/2/3 228/2/3
f 230/12/3 227/12/3 226/12/3
f 231/12/3 227/12/3 230/12/3
f 233/5/3 222/5/3 221/5/3
f 234/5/3 222/5/3 233/5/3
f 235/2/3 228/2/3 223/2/3
f 236/13/3 229/13/3 228/13/3
f 236/2/3 228/2/3 235/2/3
f 237/2/3 225/2/3 229/2/3
f 237/13/3 229/13/3 236/13/3
f 238/2/3 225/2/3 237/2/3
f 239/12/3 232/12/3 231/12/3
f 240/12/3 232/12/3 239/12/3
f 241/11/3 240/11/3 239/11/3
f 244/11/3 236/11/3 235/11/3
f 245/1/3 238/1/3 237/1/3
f 245/11/3 236/11/3 244/11/3
f 245/1/3 237/1/3 236/1/3
f 246/1/3 238/1/3 245/1/3
f 247/11/3 240/11/3 241/11/3
f 248/11/3 240/11/3 247/11/3
f 249/1/3 245/1/3 244/1/3
f 249/13/3 246/13/3 245/13/3
f 250/1/3 238/1/3 246/1/3
f 250/13/3 246/13/3 249/13/3
f 251/10/3 248/10/3 247/10/3
f 252/10/3 248/10/3 251/10/3
f 253/5/3 243/5/3 242/5/3
f 254/5/3 243/5/3 253/5/3
f 255/1/3 249/1/3 244/1/3
f 255/1/3 250/1/3 249/1/3
f 256/1/3 250/1/3 255/1/3
f 257/1/3 238/1/3 250/1/3
f 257/1/3 250/1/3 256/1/3
f 263/1/3 259/1/3 258/1/3
f 264/9/3 260/9/3 259/9/3
f 264/1/3 259/1/3 263/1/3
f 265/9/3 260/9/3 264/9/3
f 266/12/3 262/12/3 261/12/3
f 267/12/3 262/12/3 266/12/3
f 271/12/3 268/12/3 267/12/3
f 272/12/3 268/12/3 271/12/3
f 273/8/3 270/8/3 269/8/3
f 274/8/3 270/8/3 273/8/3
f 279/8/3 276/8/3 275/8/3
f 280/8/3 276/8/3 279/8/3
f 282/10/3 278/10/3 277/10/3
f 283/10/3 278/10/3 282/10/3
f 287/10/3 282/10/3 281/10/3
f 288/10/3 282/10/3 287/10/3
f 289/1/3 285/1/3 284/1/3
f 290/9/3 286/9/3 285/9/3
f 290/1/3 285/1/3 289/1/3
f 291/9/3 286/9/3 290/9/3
f 294/12/3 293/12/3 292/12/3
f 295/12/3 293/12/3 294/12/3
f 298/12/3 297/12/3 296/12/3
f 299/12/3 297/12/3 298/12/3
f 300/13/4 301/13/4 302/13/4
f 302/13/4 301/13/4 303/13/4
f 304/11/4 305/11/4 306/11/4
f 306/11/4 305/11/4 307/11/4
f 308/1/4 309/1/4 313/1/4
f 309/9/4 310/9/4 314/9/4
f 313/1/4 309/1/4 314/1/4
f 314/9/4 310/9/4 315/9/4
f 311/12/4 312/12/4 316/12/4
f 316/12/4 312/12/4 317/12/4
f 318/8/4 319/8/4 320/8/4
f 320/8/4 319/8/4 321/8/4
f 322/8/4 323/8/4 324/8/4
f 324/8/4 323/8/4 325/8/4
f 326/1/4 327/1/4 329/1/4
f 327/9/4 328/9/4 330/9/4
f 329/1/4 327/1/4 330/1/4
f 330/9/4 328/9/4 331/9/4
f 332/12/4 333/12/4 336/12/4
f 336/12/4 333/12/4 337/12/4
f 338/12/4 339/12/4 340/12/4
f 340/12/4 339/12/4 341/12/4
f 334/5/4 335/5/4 342/5/4
f 342/5/4 335/5/4 343/5/4
f 346/11/4 347/11/4 349/11/4
f 349/11/4 347/11/4 350/11/4
f 344/5/4 345/5/4 351/5/4
f 351/5/4 345/5/4 352/5/4
f 348/11/4 349/11/4 356/11/4
f 356/11/4 349/11/4 357/11/4
f 353/12/4 354/12/4 358/12/4
f 354/11/4 355/11/4 359/11/4
f 358/12/4 354/12/4 359/12/4
f 355/11/4 356/11/4 359/11/4
f 359/11/4 356/11/4 360/11/4
f 362/7/4 363/7/4 365/7/4
f 363/12/4 364/12/4 365/12/4
f 365/12/4 364/12/4 366/12/4
f 366/12/4 367/12/4 368/12/4
f 368/12/4 367/12/4 369/12/4
f 362/7/4 365/7/4 370/7/4
f 368/11/4 369/11/4 372/11/4
f 372/11/4 369/11/4 373/11/4
f 361/5/4 362/5/4 374/5/4
f 362/7/4 370/7/4 375/7/4
f 374/5/4 362/5/4 375/5/4
f 370/12/4 371/12/4 376/12/4
f 375/7/4 370/7/4 376/7/4
f 371/11/4 372/11/4 377/11/4
f 376/12/4 371/12/4 377/12/4
f 377/11/4 372/11/4 378/11/4
f 379/12/4 380/12/4 381/12/4
f 381/12/4 380/12/4 382/12/4
f 387/8/5 384/8/5 383/8/5
f 388/8/5 384/8/5 387/8/5
f 389/8/5 386/8/5 385/8/5
f 390/8/5 386/8/5 389/8/5
f 395/5/5 392/5/5 391/5/5
f 396/5/5 392/5/5 395/5/5
f 397/5/5 394/5/5 393/5/5
f 398/5/5 394/5/5 397/5/5
f 399/5/5 395/5/5 391/5/5
f 402/5/5 394/5/5 398/5/5
f 403/5/5 400/5/5 399/5/5
f 403/5/5 399/5/5 391/5/5
f 404/5/5 400/5/5 403/5/5
f 405/5/5 402/5/5 401/5/5
f 406/5/5 394/5/5 402/5/5
f 406/5/5 402/5/5 405/5/5
f 410/5/5 408/5/5 407/5/5
f 411/5/5 408/5/5 410/5/5
f 412/3/5 409/3/5 408/3/5
f 413/3/5 409/3/5 412/3/5
f 416/5/5 408/5/5 411/5/5
f 417/3/5 412/3/5 408/3/5
f 417/5/5 408/5/5 416/5/5
f 418/3/5 412/3/5 417/3/5
f 421/1/5 415/1/5 414/1/5
f 422/1/5 415/1/5 421/1/5
f 423/5/5 418/5/5 417/5/5
f 423/5/5 417/5/5 416/5/5
f 424/5/5 418/5/5 423/5/5
f 425/1/5 420/1/5 419/1/5
f 426/1/5 420/1/5 425/1/5
f 428/5/5 424/5/5 423/5/5
f 429/5/5 424/5/5 428/5/5
f 431/5/5 428/5/5 427/5/5
f 431/5/5 430/5/5 429/5/5
f 431/5/5 429/5/5 428/5/5
f 432/5/5 430/5/5 431/5/5
f 437/13/5 434/13/5 433/13/5
f 438/13/5 434/13/5 437/13/5
f 439/11/5 436/11/5 435/11/5
f 440/11/5 436/11/5 439/11/5
f 445/12/5 442/12/5 441/12/5
f 446/12/5 442/12/5 445/12/5
f 447/12/5 444/12/5 443/12/5
f 448/12/5 444/12/5 447/12/5
f 451/12/5 450/12/5 449/12/5
f 452/12/5 450/12/5 451/12/5
f 457/2/5 454/2/5 453/2/5
f 458/2/5 454/2/5 457/2/5
f 459/2/5 456/2/5 455/2/5
f 460/2/5 456/2/5 459/2/5
f 463/12/5 462/12/5 461/12/5
f 464/12/5 462/12/5 463/12/5
f 467/12/5 466/12/5 465/12/5
f 468/12/5 466/12/5 467/12/5
f 469/12/5 467/12/5 465/12/5
f 470/10/5 468/10/5 467/10/5
f 470/12/5 467/12/5 469/12/5
f 471/10/5 468/10/5 470/10/5
f 472/7/6 473/7/6 476/7/6
f 473/9/6 474/9/6 477/9/6
f 476/7/6 473/7/6 477/7/6
f 474/5/6 475/5/6 478/5/6
f 477/9/6 474/9/6 478/9/6
f 478/5/6 475/5/6 479/5/6
f 480/9/6 481/9/6 484/9/6
f 484/9/6 481/9/6 485/9/6
f 482/9/6 483/9/6 486/9/6
f 486/9/6 483/9/6 487/9/6
f 488/12/6 489/12/6 490/12/6
f 490/12/6 489/12/6 491/12/6
f 491/12/6 489/12/6 492/12/6
f 492/12/6 489/12/6 493/12/6
f 488/12/6 490/12/6 494/12/6
f 494/12/6 490/12/6 495/12/6
f 488/12/6 494/12/6 496/12/6
f 496/12/6 494/12/6 497/12/6
f 498/12/6 499/12/6 500/12/6
f 500/12/6 499/12/6 501/12/6
f 502/12/6 503/12/6 507/12/6
f 507/12/6 503/12/6 508/12/6
f 503/11/6 504/11/6 509/11/6
f 508/12/6 503/12/6 509/12/6
f 504/10/6 505/10/6 510/10/6
f 509/11/6 504/11/6 510/11/6
f 510/10/6 505/10/6 511/10/6
f 506/12/6 507/12/6 513/12/6
f 513/12/6 507/12/6 514/12/6
f 511/10/6 505/10/6 515/10/6
f 515/10/6 505/10/6 516/10/6
f 516/10/6 505/10/6 517/10/6
f 512/12/6 513/12/6 518/12/6
f 518/12/6 513/12/6 519/12/6
f 516/11/6 517/11/6 520/11/6
f 520/11/6 517/11/6 524/11/6
f 524/11/6 517/11/6 525/11/6
f 521/12/6 522/12/6 526/12/6
f 526/12/6 522/12/6 527/12/6
f 523/11/6 524/11/6 529/11/6
f 529/11/6 524/11/6 530/11/6
f 527/12/6 528/12/6 531/12/6
f 528/12/6 529/12/6 531/12/6
f 531/12/6 529/12/6 532/12/6
f 533/12/6 534/12/6 538/12/6
f 535/10/6 536/10/6 539/10/6
f 534/11/6 535/11/6 539/11/6
f 539/10/6 536/10/6 540/10/6
f 534/11/6 539/11/6 542/11/6
f 540/10/6 541/10/6 543/10/6
f 543/10/6 541/10/6 544/10/6
f 537/12/6 538/12/6 545/12/6
f 538/12/6 534/12/6 546/12/6
f 545/12/6 538/12/6 546/12/6
f 534/11/6 542/11/6 547/11/6
f 546/12/6 534/12/6 547/12/6
f 547/11/6 542/11/6 548/11/6
f 548/11/6 542/11/6 549/11/6
f 543/11/6 544/11/6 550/11/6
f 550/11/6 544/11/6 551/11/6
f 546/12/6 547/12/6 552/12/6
f 547/12/6 548/12/6 552/12/6
f 548/11/6 549/11/6 553/11/6
f 552/12/6 548/12/6 553/12/6
f 549/11/6 550/11/6 553/11/6
f 553/11/6 550/11/6 554/11/6
f 555/10/6 556/10/6 557/10/6
f 557/10/6 556/10/6 558/10/6
f 557/11/6 558/11/6 559/11/6
f 559/11/6 558/11/6 560/11/6
