# MagicaVoxel @ Ephtracy

# material
mtllib sword.mtl
usemtl palette

# normals
vn -1 0 0
vn 1 0 0
vn 0 0 1
vn 0 0 -1
vn 0 -1 0
vn 0 1 0

# texcoords
vt 0.369141 0.5
vt 0.958984 0.5
vt 0.970703 0.5
vt 0.978516 0.5
vt 0.990234 0.5

# verts
v -7.5 0 -5.5
v -7.5 0 -8.5
v -7.5 1 -5.5
v -7.5 1 -8.5
v -6.5 0 0.5
v -6.5 0 -1.5
v -6.5 1 0.5
v -6.5 1 -1.5
v -5.5 0 -1.5
v -5.5 0 -3.5
v -5.5 0 -4.5
v -5.5 0 -5.5
v -5.5 1 -1.5
v -5.5 1 -3.5
v -5.5 1 -4.5
v -5.5 1 -5.5
v -4.5 0 -3.5
v -4.5 0 -4.5
v -4.5 1 -3.5
v -4.5 1 -4.5
v -2.5 0 -0.5
v -2.5 0 -1.5
v -2.5 0 -5.5
v -2.5 0 -6.5
v -2.5 1 -0.5
v -2.5 1 -1.5
v -2.5 1 -5.5
v -2.5 1 -6.5
v -1.5 0 0.5
v -1.5 0 -0.5
v -1.5 1 0.5
v -1.5 1 -0.5
v -0.5 0 1.5
v -0.5 0 0.5
v -0.5 0 -6.5
v -0.5 0 -7.5
v -0.5 1 1.5
v -0.5 1 0.5
v -0.5 1 -6.5
v -0.5 1 -7.5
v 0.5 0 2.5
v 0.5 0 1.5
v 0.5 1 2.5
v 0.5 1 1.5
v 1.5 0 3.5
v 1.5 0 2.5
v 1.5 1 3.5
v 1.5 1 2.5
v 2.5 0 4.5
v 2.5 0 3.5
v 2.5 1 4.5
v 2.5 1 3.5
v 3.5 0 5.5
v 3.5 0 4.5
v 3.5 1 5.5
v 3.5 1 4.5
v 4.5 0 6.5
v 4.5 0 5.5
v 4.5 1 6.5
v 4.5 1 5.5
v 5.5 0 7.5
v 5.5 0 6.5
v 5.5 1 7.5
v 5.5 1 6.5
v 6.5 0 8.5
v 6.5 0 7.5
v 6.5 1 8.5
v 6.5 1 7.5
v -4.5 0 0.5
v -4.5 0 -0.5
v -4.5 0 -6.5
v -4.5 0 -8.5
v -4.5 1 0.5
v -4.5 1 -0.5
v -4.5 1 -6.5
v -4.5 1 -8.5
v -3.5 0 -0.5
v -3.5 0 -1.5
v -3.5 0 -5.5
v -3.5 0 -6.5
v -3.5 1 -0.5
v -3.5 1 -1.5
v -3.5 1 -5.5
v -3.5 1 -6.5
v -0.5 0 -3.5
v -0.5 0 -4.5
v -0.5 1 -3.5
v -0.5 1 -4.5
v 0.5 0 -2.5
v 0.5 0 -3.5
v 0.5 0 -4.5
v 0.5 0 -5.5
v 0.5 1 -2.5
v 0.5 1 -3.5
v 0.5 1 -4.5
v 0.5 1 -5.5
v 1.5 0 -1.5
v 1.5 0 -2.5
v 1.5 0 -5.5
v 1.5 0 -7.5
v 1.5 1 -1.5
v 1.5 1 -2.5
v 1.5 1 -5.5
v 1.5 1 -7.5
v 2.5 0 -0.5
v 2.5 0 -1.5
v 2.5 1 -0.5
v 2.5 1 -1.5
v 3.5 0 0.5
v 3.5 0 -0.5
v 3.5 1 0.5
v 3.5 1 -0.5
v 4.5 0 1.5
v 4.5 0 0.5
v 4.5 1 1.5
v 4.5 1 0.5
v 5.5 0 2.5
v 5.5 0 1.5
v 5.5 1 2.5
v 5.5 1 1.5
v 6.5 0 3.5
v 6.5 0 2.5
v 6.5 1 3.5
v 6.5 1 2.5
v 7.5 0 4.5
v 7.5 0 3.5
v 7.5 1 4.5
v 7.5 1 3.5
v 8.5 0 5.5
v 8.5 0 4.5
v 8.5 1 5.5
v 8.5 1 4.5
v 9.5 0 8.5
v 9.5 0 5.5
v 9.5 1 8.5
v 9.5 1 5.5
v 6.5 0 8.5
v 6.5 1 8.5
v 9.5 0 8.5
v 9.5 1 8.5
v 5.5 0 7.5
v 5.5 1 7.5
v 6.5 0 7.5
v 6.5 1 7.5
v 4.5 0 6.5
v 4.5 1 6.5
v 5.5 0 6.5
v 5.5 1 6.5
v 3.5 0 5.5
v 3.5 1 5.5
v 4.5 0 5.5
v 4.5 1 5.5
v 2.5 0 4.5
v 2.5 1 4.5
v 3.5 0 4.5
v 3.5 1 4.5
v 1.5 0 3.5
v 1.5 1 3.5
v 2.5 0 3.5
v 2.5 1 3.5
v 0.5 0 2.5
v 0.5 1 2.5
v 1.5 0 2.5
v 1.5 1 2.5
v -0.5 0 1.5
v -0.5 1 1.5
v 0.5 0 1.5
v 0.5 1 1.5
v -6.5 0 0.5
v -6.5 1 0.5
v -4.5 0 0.5
v -4.5 1 0.5
v -1.5 0 0.5
v -1.5 1 0.5
v -0.5 0 0.5
v -0.5 1 0.5
v -4.5 0 -0.5
v -4.5 1 -0.5
v -3.5 0 -0.5
v -3.5 1 -0.5
v -2.5 0 -0.5
v -2.5 1 -0.5
v -1.5 0 -0.5
v -1.5 1 -0.5
v -3.5 0 -1.5
v -3.5 1 -1.5
v -2.5 0 -1.5
v -2.5 1 -1.5
v -5.5 0 -4.5
v -5.5 1 -4.5
v -4.5 0 -4.5
v -4.5 1 -4.5
v -0.5 0 -4.5
v -0.5 1 -4.5
v 0.5 0 -4.5
v 0.5 1 -4.5
v -7.5 0 -5.5
v -7.5 1 -5.5
v -5.5 0 -5.5
v -5.5 1 -5.5
v 0.5 0 -5.5
v 0.5 1 -5.5
v 1.5 0 -5.5
v 1.5 1 -5.5
v 8.5 0 5.5
v 8.5 1 5.5
v 9.5 0 5.5
v 9.5 1 5.5
v 7.5 0 4.5
v 7.5 1 4.5
v 8.5 0 4.5
v 8.5 1 4.5
v 6.5 0 3.5
v 6.5 1 3.5
v 7.5 0 3.5
v 7.5 1 3.5
v 5.5 0 2.5
v 5.5 1 2.5
v 6.5 0 2.5
v 6.5 1 2.5
v 4.5 0 1.5
v 4.5 1 1.5
v 5.5 0 1.5
v 5.5 1 1.5
v 3.5 0 0.5
v 3.5 1 0.5
v 4.5 0 0.5
v 4.5 1 0.5
v 2.5 0 -0.5
v 2.5 1 -0.5
v 3.5 0 -0.5
v 3.5 1 -0.5
v -6.5 0 -1.5
v -6.5 1 -1.5
v -5.5 0 -1.5
v -5.5 1 -1.5
v 1.5 0 -1.5
v 1.5 1 -1.5
v 2.5 0 -1.5
v 2.5 1 -1.5
v 0.5 0 -2.5
v 0.5 1 -2.5
v 1.5 0 -2.5
v 1.5 1 -2.5
v -5.5 0 -3.5
v -5.5 1 -3.5
v -4.5 0 -3.5
v -4.5 1 -3.5
v -0.5 0 -3.5
v -0.5 1 -3.5
v 0.5 0 -3.5
v 0.5 1 -3.5
v -3.5 0 -5.5
v -3.5 1 -5.5
v -2.5 0 -5.5
v -2.5 1 -5.5
v -4.5 0 -6.5
v -4.5 1 -6.5
v -3.5 0 -6.5
v -3.5 1 -6.5
v -2.5 0 -6.5
v -2.5 1 -6.5
v -0.5 0 -6.5
v -0.5 1 -6.5
v -0.5 0 -7.5
v -0.5 1 -7.5
v 1.5 0 -7.5
v 1.5 1 -7.5
v -7.5 0 -8.5
v -7.5 1 -8.5
v -4.5 0 -8.5
v -4.5 1 -8.5
v 6.5 0 8.5
v 9.5 0 8.5
v 5.5 0 7.5
v 6.5 0 7.5
v 7.5 0 7.5
v 8.5 0 7.5
v 4.5 0 6.5
v 5.5 0 6.5
v 6.5 0 6.5
v 7.5 0 6.5
v 8.5 0 6.5
v 3.5 0 5.5
v 4.5 0 5.5
v 5.5 0 5.5
v 6.5 0 5.5
v 7.5 0 5.5
v 8.5 0 5.5
v 9.5 0 5.5
v 2.5 0 4.5
v 3.5 0 4.5
v 4.5 0 4.5
v 5.5 0 4.5
v 6.5 0 4.5
v 7.5 0 4.5
v 8.5 0 4.5
v 1.5 0 3.5
v 2.5 0 3.5
v 3.5 0 3.5
v 4.5 0 3.5
v 5.5 0 3.5
v 6.5 0 3.5
v 7.5 0 3.5
v 0.5 0 2.5
v 1.5 0 2.5
v 2.5 0 2.5
v 3.5 0 2.5
v 4.5 0 2.5
v 5.5 0 2.5
v 6.5 0 2.5
v -0.5 0 1.5
v 0.5 0 1.5
v 1.5 0 1.5
v 2.5 0 1.5
v 3.5 0 1.5
v 4.5 0 1.5
v 5.5 0 1.5
v -6.5 0 0.5
v -4.5 0 0.5
v -1.5 0 0.5
v -0.5 0 0.5
v 0.5 0 0.5
v 1.5 0 0.5
v 2.5 0 0.5
v 3.5 0 0.5
v 4.5 0 0.5
v -5.5 0 -0.5
v -4.5 0 -0.5
v -3.5 0 -0.5
v -2.5 0 -0.5
v -1.5 0 -0.5
v -0.5 0 -0.5
v 0.5 0 -0.5
v 1.5 0 -0.5
v 2.5 0 -0.5
v 3.5 0 -0.5
v -6.5 0 -1.5
v -5.5 0 -1.5
v -4.5 0 -1.5
v -3.5 0 -1.5
v -2.5 0 -1.5
v -1.5 0 -1.5
v -0.5 0 -1.5
v 0.5 0 -1.5
v 1.5 0 -1.5
v 2.5 0 -1.5
v -2.5 0 -2.5
v -1.5 0 -2.5
v -0.5 0 -2.5
v 0.5 0 -2.5
v 1.5 0 -2.5
v -5.5 0 -3.5
v -4.5 0 -3.5
v -3.5 0 -3.5
v -2.5 0 -3.5
v -1.5 0 -3.5
v -0.5 0 -3.5
v 0.5 0 -3.5
v -5.5 0 -4.5
v -4.5 0 -4.5
v -3.5 0 -4.5
v -2.5 0 -4.5
v -0.5 0 -4.5
v 0.5 0 -4.5
v -7.5 0 -5.5
v -5.5 0 -5.5
v -4.5 0 -5.5
v -3.5 0 -5.5
v -2.5 0 -5.5
v -0.5 0 -5.5
v 0.5 0 -5.5
v 1.5 0 -5.5
v -6.5 0 -6.5
v -5.5 0 -6.5
v -4.5 0 -6.5
v -3.5 0 -6.5
v -2.5 0 -6.5
v -0.5 0 -6.5
v 0.5 0 -6.5
v -6.5 0 -7.5
v -5.5 0 -7.5
v -0.5 0 -7.5
v 1.5 0 -7.5
v -7.5 0 -8.5
v -4.5 0 -8.5
v 6.5 1 8.5
v 9.5 1 8.5
v 5.5 1 7.5
v 6.5 1 7.5
v 7.5 1 7.5
v 8.5 1 7.5
v 4.5 1 6.5
v 5.5 1 6.5
v 6.5 1 6.5
v 7.5 1 6.5
v 8.5 1 6.5
v 3.5 1 5.5
v 4.5 1 5.5
v 5.5 1 5.5
v 6.5 1 5.5
v 7.5 1 5.5
v 8.5 1 5.5
v 9.5 1 5.5
v 2.5 1 4.5
v 3.5 1 4.5
v 4.5 1 4.5
v 5.5 1 4.5
v 6.5 1 4.5
v 7.5 1 4.5
v 8.5 1 4.5
v 1.5 1 3.5
v 2.5 1 3.5
v 3.5 1 3.5
v 4.5 1 3.5
v 5.5 1 3.5
v 6.5 1 3.5
v 7.5 1 3.5
v 0.5 1 2.5
v 1.5 1 2.5
v 2.5 1 2.5
v 3.5 1 2.5
v 4.5 1 2.5
v 5.5 1 2.5
v 6.5 1 2.5
v -0.5 1 1.5
v 0.5 1 1.5
v 1.5 1 1.5
v 2.5 1 1.5
v 3.5 1 1.5
v 4.5 1 1.5
v 5.5 1 1.5
v -6.5 1 0.5
v -4.5 1 0.5
v -1.5 1 0.5
v -0.5 1 0.5
v 0.5 1 0.5
v 1.5 1 0.5
v 2.5 1 0.5
v 3.5 1 0.5
v 4.5 1 0.5
v -5.5 1 -0.5
v -4.5 1 -0.5
v -3.5 1 -0.5
v -2.5 1 -0.5
v -1.5 1 -0.5
v -0.5 1 -0.5
v 0.5 1 -0.5
v 1.5 1 -0.5
v 2.5 1 -0.5
v 3.5 1 -0.5
v -6.5 1 -1.5
v -5.5 1 -1.5
v -4.5 1 -1.5
v -3.5 1 -1.5
v -2.5 1 -1.5
v -1.5 1 -1.5
v -0.5 1 -1.5
v 0.5 1 -1.5
v 1.5 1 -1.5
v 2.5 1 -1.5
v -2.5 1 -2.5
v -1.5 1 -2.5
v -0.5 1 -2.5
v 0.5 1 -2.5
v 1.5 1 -2.5
v -5.5 1 -3.5
v -4.5 1 -3.5
v -3.5 1 -3.5
v -2.5 1 -3.5
v -1.5 1 -3.5
v -0.5 1 -3.5
v 0.5 1 -3.5
v -5.5 1 -4.5
v -4.5 1 -4.5
v -3.5 1 -4.5
v -2.5 1 -4.5
v -0.5 1 -4.5
v 0.5 1 -4.5
v -7.5 1 -5.5
v -5.5 1 -5.5
v -4.5 1 -5.5
v -3.5 1 -5.5
v -2.5 1 -5.5
v -0.5 1 -5.5
v 0.5 1 -5.5
v 1.5 1 -5.5
v -6.5 1 -6.5
v -5.5 1 -6.5
v -4.5 1 -6.5
v -3.5 1 -6.5
v -2.5 1 -6.5
v -0.5 1 -6.5
v 0.5 1 -6.5
v -6.5 1 -7.5
v -5.5 1 -7.5
v -0.5 1 -7.5
v 1.5 1 -7.5
v -7.5 1 -8.5
v -4.5 1 -8.5

# faces
f 3/5/1 2/5/1 1/5/1
f 4/5/1 2/5/1 3/5/1
f 7/5/1 6/5/1 5/5/1
f 8/5/1 6/5/1 7/5/1
f 13/5/1 10/5/1 9/5/1
f 14/5/1 10/5/1 13/5/1
f 15/5/1 12/5/1 11/5/1
f 16/5/1 12/5/1 15/5/1
f 19/5/1 18/5/1 17/5/1
f 20/5/1 18/5/1 19/5/1
f 25/4/1 22/4/1 21/4/1
f 26/4/1 22/4/1 25/4/1
f 27/5/1 24/5/1 23/5/1
f 28/5/1 24/5/1 27/5/1
f 31/4/1 30/4/1 29/4/1
f 32/4/1 30/4/1 31/4/1
f 37/4/1 34/4/1 33/4/1
f 38/4/1 34/4/1 37/4/1
f 39/5/1 36/5/1 35/5/1
f 40/5/1 36/5/1 39/5/1
f 43/4/1 42/4/1 41/4/1
f 44/4/1 42/4/1 43/4/1
f 47/4/1 46/4/1 45/4/1
f 48/4/1 46/4/1 47/4/1
f 51/4/1 50/4/1 49/4/1
f 52/4/1 50/4/1 51/4/1
f 55/4/1 54/4/1 53/4/1
f 56/4/1 54/4/1 55/4/1
f 59/4/1 58/4/1 57/4/1
f 60/4/1 58/4/1 59/4/1
f 63/4/1 62/4/1 61/4/1
f 64/4/1 62/4/1 63/4/1
f 67/4/1 66/4/1 65/4/1
f 68/4/1 66/4/1 67/4/1
f 69/5/2 70/5/2 73/5/2
f 73/5/2 70/5/2 74/5/2
f 71/5/2 72/5/2 75/5/2
f 75/5/2 72/5/2 76/5/2
f 77/5/2 78/5/2 81/5/2
f 81/5/2 78/5/2 82/5/2
f 79/5/2 80/5/2 83/5/2
f 83/5/2 80/5/2 84/5/2
f 85/5/2 86/5/2 87/5/2
f 87/5/2 86/5/2 88/5/2
f 89/4/2 90/4/2 93/4/2
f 93/4/2 90/4/2 94/4/2
f 91/5/2 92/5/2 95/5/2
f 95/5/2 92/5/2 96/5/2
f 97/4/2 98/4/2 101/4/2
f 101/4/2 98/4/2 102/4/2
f 99/5/2 100/5/2 103/5/2
f 103/5/2 100/5/2 104/5/2
f 105/4/2 106/4/2 107/4/2
f 107/4/2 106/4/2 108/4/2
f 109/4/2 110/4/2 111/4/2
f 111/4/2 110/4/2 112/4/2
f 113/4/2 114/4/2 115/4/2
f 115/4/2 114/4/2 116/4/2
f 117/4/2 118/4/2 119/4/2
f 119/4/2 118/4/2 120/4/2
f 121/4/2 122/4/2 123/4/2
f 123/4/2 122/4/2 124/4/2
f 125/4/2 126/4/2 127/4/2
f 127/4/2 126/4/2 128/4/2
f 129/4/2 130/4/2 131/4/2
f 131/4/2 130/4/2 132/4/2
f 133/4/2 134/4/2 135/4/2
f 135/4/2 134/4/2 136/4/2
f 139/4/3 138/4/3 137/4/3
f 140/4/3 138/4/3 139/4/3
f 143/4/3 142/4/3 141/4/3
f 144/4/3 142/4/3 143/4/3
f 147/4/3 146/4/3 145/4/3
f 148/4/3 146/4/3 147/4/3
f 151/4/3 150/4/3 149/4/3
f 152/4/3 150/4/3 151/4/3
f 155/4/3 154/4/3 153/4/3
f 156/4/3 154/4/3 155/4/3
f 159/4/3 158/4/3 157/4/3
f 160/4/3 158/4/3 159/4/3
f 163/4/3 162/4/3 161/4/3
f 164/4/3 162/4/3 163/4/3
f 167/4/3 166/4/3 165/4/3
f 168/4/3 166/4/3 167/4/3
f 171/5/3 170/5/3 169/5/3
f 172/5/3 170/5/3 171/5/3
f 175/4/3 174/4/3 173/4/3
f 176/4/3 174/4/3 175/4/3
f 179/5/3 178/5/3 177/5/3
f 180/5/3 178/5/3 179/5/3
f 183/4/3 182/4/3 181/4/3
f 184/4/3 182/4/3 183/4/3
f 187/5/3 186/5/3 185/5/3
f 188/5/3 186/5/3 187/5/3
f 191/5/3 190/5/3 189/5/3
f 192/5/3 190/5/3 191/5/3
f 195/5/3 194/5/3 193/5/3
f 196/5/3 194/5/3 195/5/3
f 199/5/3 198/5/3 197/5/3
f 200/5/3 198/5/3 199/5/3
f 203/5/3 202/5/3 201/5/3
f 204/5/3 202/5/3 203/5/3
f 205/4/4 206/4/4 207/4/4
f 207/4/4 206/4/4 208/4/4
f 209/4/4 210/4/4 211/4/4
f 211/4/4 210/4/4 212/4/4
f 213/4/4 214/4/4 215/4/4
f 215/4/4 214/4/4 216/4/4
f 217/4/4 218/4/4 219/4/4
f 219/4/4 218/4/4 220/4/4
f 221/4/4 222/4/4 223/4/4
f 223/4/4 222/4/4 224/4/4
f 225/4/4 226/4/4 227/4/4
f 227/4/4 226/4/4 228/4/4
f 229/4/4 230/4/4 231/4/4
f 231/4/4 230/4/4 232/4/4
f 233/5/4 234/5/4 235/5/4
f 235/5/4 234/5/4 236/5/4
f 237/4/4 238/4/4 239/4/4
f 239/4/4 238/4/4 240/4/4
f 241/4/4 242/4/4 243/4/4
f 243/4/4 242/4/4 244/4/4
f 245/5/4 246/5/4 247/5/4
f 247/5/4 246/5/4 248/5/4
f 249/4/4 250/4/4 251/4/4
f 251/4/4 250/4/4 252/4/4
f 253/5/4 254/5/4 255/5/4
f 255/5/4 254/5/4 256/5/4
f 257/5/4 258/5/4 259/5/4
f 259/5/4 258/5/4 260/5/4
f 261/5/4 262/5/4 263/5/4
f 263/5/4 262/5/4 264/5/4
f 265/5/4 266/5/4 267/5/4
f 267/5/4 266/5/4 268/5/4
f 269/5/4 270/5/4 271/5/4
f 271/5/4 270/5/4 272/5/4
f 276/4/5 274/4/5 273/4/5
f 277/4/5 274/4/5 276/4/5
f 278/4/5 274/4/5 277/4/5
f 280/4/5 276/4/5 275/4/5
f 281/2/5 277/2/5 276/2/5
f 281/4/5 276/4/5 280/4/5
f 282/3/5 278/3/5 277/3/5
f 282/2/5 277/2/5 281/2/5
f 283/4/5 274/4/5 278/4/5
f 283/3/5 278/3/5 282/3/5
f 285/4/5 280/4/5 279/4/5
f 286/2/5 281/2/5 280/2/5
f 286/4/5 280/4/5 285/4/5
f 287/3/5 282/3/5 281/3/5
f 287/2/5 281/2/5 286/2/5
f 288/2/5 283/2/5 282/2/5
f 288/3/5 282/3/5 287/3/5
f 289/4/5 274/4/5 283/4/5
f 289/2/5 283/2/5 288/2/5
f 290/4/5 274/4/5 289/4/5
f 292/4/5 285/4/5 284/4/5
f 293/2/5 286/2/5 285/2/5
f 293/4/5 285/4/5 292/4/5
f 294/3/5 287/3/5 286/3/5
f 294/2/5 286/2/5 293/2/5
f 295/2/5 288/2/5 287/2/5
f 295/3/5 287/3/5 294/3/5
f 296/4/5 289/4/5 288/4/5
f 296/2/5 288/2/5 295/2/5
f 297/4/5 289/4/5 296/4/5
f 299/4/5 292/4/5 291/4/5
f 300/2/5 293/2/5 292/2/5
f 300/4/5 292/4/5 299/4/5
f 301/3/5 294/3/5 293/3/5
f 301/2/5 293/2/5 300/2/5
f 302/2/5 295/2/5 294/2/5
f 302/3/5 294/3/5 301/3/5
f 303/4/5 296/4/5 295/4/5
f 303/2/5 295/2/5 302/2/5
f 304/4/5 296/4/5 303/4/5
f 306/4/5 299/4/5 298/4/5
f 307/2/5 300/2/5 299/2/5
f 307/4/5 299/4/5 306/4/5
f 308/3/5 301/3/5 300/3/5
f 308/2/5 300/2/5 307/2/5
f 309/2/5 302/2/5 301/2/5
f 309/3/5 301/3/5 308/3/5
f 310/4/5 303/4/5 302/4/5
f 310/2/5 302/2/5 309/2/5
f 311/4/5 303/4/5 310/4/5
f 313/4/5 306/4/5 305/4/5
f 314/2/5 307/2/5 306/2/5
f 314/4/5 306/4/5 313/4/5
f 315/3/5 308/3/5 307/3/5
f 315/2/5 307/2/5 314/2/5
f 316/2/5 309/2/5 308/2/5
f 316/3/5 308/3/5 315/3/5
f 317/4/5 310/4/5 309/4/5
f 317/2/5 309/2/5 316/2/5
f 318/4/5 310/4/5 317/4/5
f 322/4/5 313/4/5 312/4/5
f 323/2/5 314/2/5 313/2/5
f 323/4/5 313/4/5 322/4/5
f 324/3/5 315/3/5 314/3/5
f 324/2/5 314/2/5 323/2/5
f 325/2/5 316/2/5 315/2/5
f 325/3/5 315/3/5 324/3/5
f 326/4/5 317/4/5 316/4/5
f 326/2/5 316/2/5 325/2/5
f 327/4/5 317/4/5 326/4/5
f 328/5/5 320/5/5 319/5/5
f 329/5/5 320/5/5 328/5/5
f 332/4/5 322/4/5 321/4/5
f 333/2/5 323/2/5 322/2/5
f 333/4/5 322/4/5 332/4/5
f 334/3/5 324/3/5 323/3/5
f 334/2/5 323/2/5 333/2/5
f 335/2/5 325/2/5 324/2/5
f 335/3/5 324/3/5 334/3/5
f 336/4/5 326/4/5 325/4/5
f 336/2/5 325/2/5 335/2/5
f 337/4/5 326/4/5 336/4/5
f 338/5/5 328/5/5 319/5/5
f 339/4/5 329/4/5 328/4/5
f 339/5/5 328/5/5 338/5/5
f 340/5/5 330/5/5 329/5/5
f 340/4/5 329/4/5 339/4/5
f 341/5/5 330/5/5 340/5/5
f 342/4/5 332/4/5 331/4/5
f 343/2/5 333/2/5 332/2/5
f 343/4/5 332/4/5 342/4/5
f 344/3/5 334/3/5 333/3/5
f 344/2/5 333/2/5 343/2/5
f 345/2/5 335/2/5 334/2/5
f 345/3/5 334/3/5 344/3/5
f 346/4/5 336/4/5 335/4/5
f 346/2/5 335/2/5 345/2/5
f 347/4/5 336/4/5 346/4/5
f 348/5/5 342/5/5 341/5/5
f 348/2/5 343/2/5 342/2/5
f 349/3/5 344/3/5 343/3/5
f 349/2/5 343/2/5 348/2/5
f 350/2/5 345/2/5 344/2/5
f 350/3/5 344/3/5 349/3/5
f 351/4/5 346/4/5 345/4/5
f 351/2/5 345/2/5 350/2/5
f 352/4/5 346/4/5 351/4/5
f 353/5/5 340/5/5 339/5/5
f 354/4/5 341/4/5 340/4/5
f 354/5/5 340/5/5 353/5/5
f 355/5/5 348/5/5 341/5/5
f 355/4/5 341/4/5 354/4/5
f 356/3/5 349/3/5 348/3/5
f 356/5/5 348/5/5 355/5/5
f 357/2/5 350/2/5 349/2/5
f 357/3/5 349/3/5 356/3/5
f 358/4/5 351/4/5 350/4/5
f 358/2/5 350/2/5 357/2/5
f 359/4/5 351/4/5 358/4/5
f 361/5/5 355/5/5 354/5/5
f 362/4/5 356/4/5 355/4/5
f 362/5/5 355/5/5 361/5/5
f 363/5/5 358/5/5 357/5/5
f 363/4/5 356/4/5 362/4/5
f 363/5/5 357/5/5 356/5/5
f 364/5/5 358/5/5 363/5/5
f 367/5/5 361/5/5 360/5/5
f 368/1/5 362/1/5 361/1/5
f 368/5/5 361/5/5 367/5/5
f 369/5/5 363/5/5 362/5/5
f 369/1/5 362/1/5 368/1/5
f 370/4/5 364/4/5 363/4/5
f 370/5/5 363/5/5 369/5/5
f 371/5/5 365/5/5 364/5/5
f 371/4/5 364/4/5 370/4/5
f 372/5/5 365/5/5 371/5/5
f 374/5/5 367/5/5 366/5/5
f 375/1/5 368/1/5 367/1/5
f 375/5/5 367/5/5 374/5/5
f 376/5/5 369/5/5 368/5/5
f 376/1/5 368/1/5 375/1/5
f 377/5/5 369/5/5 376/5/5
f 378/5/5 371/5/5 370/5/5
f 379/4/5 372/4/5 371/4/5
f 379/5/5 371/5/5 378/5/5
f 380/5/5 373/5/5 372/5/5
f 380/4/5 372/4/5 379/4/5
f 381/5/5 374/5/5 366/5/5
f 381/4/5 375/4/5 374/4/5
f 382/5/5 376/5/5 375/5/5
f 382/4/5 375/4/5 381/4/5
f 383/5/5 380/5/5 379/5/5
f 384/5/5 373/5/5 380/5/5
f 384/5/5 380/5/5 383/5/5
f 385/5/5 381/5/5 366/5/5
f 385/5/5 382/5/5 381/5/5
f 386/5/5 376/5/5 382/5/5
f 386/5/5 382/5/5 385/5/5
f 387/4/6 388/4/6 390/4/6
f 390/4/6 388/4/6 391/4/6
f 391/4/6 388/4/6 392/4/6
f 389/4/6 390/4/6 394/4/6
f 390/2/6 391/2/6 395/2/6
f 394/4/6 390/4/6 395/4/6
f 391/3/6 392/3/6 396/3/6
f 395/2/6 391/2/6 396/2/6
f 392/4/6 388/4/6 397/4/6
f 396/3/6 392/3/6 397/3/6
f 393/4/6 394/4/6 399/4/6
f 394/2/6 395/2/6 400/2/6
f 399/4/6 394/4/6 400/4/6
f 395/3/6 396/3/6 401/3/6
f 400/2/6 395/2/6 401/2/6
f 396/2/6 397/2/6 402/2/6
f 401/3/6 396/3/6 402/3/6
f 397/4/6 388/4/6 403/4/6
f 402/2/6 397/2/6 403/2/6
f 403/4/6 388/4/6 404/4/6
f 398/4/6 399/4/6 406/4/6
f 399/2/6 400/2/6 407/2/6
f 406/4/6 399/4/6 407/4/6
f 400/3/6 401/3/6 408/3/6
f 407/2/6 400/2/6 408/2/6
f 401/2/6 402/2/6 409/2/6
f 408/3/6 401/3/6 409/3/6
f 402/4/6 403/4/6 410/4/6
f 409/2/6 402/2/6 410/2/6
f 410/4/6 403/4/6 411/4/6
f 405/4/6 406/4/6 413/4/6
f 406/2/6 407/2/6 414/2/6
f 413/4/6 406/4/6 414/4/6
f 407/3/6 408/3/6 415/3/6
f 414/2/6 407/2/6 415/2/6
f 408/2/6 409/2/6 416/2/6
f 415/3/6 408/3/6 416/3/6
f 409/4/6 410/4/6 417/4/6
f 416/2/6 409/2/6 417/2/6
f 417/4/6 410/4/6 418/4/6
f 412/4/6 413/4/6 420/4/6
f 413/2/6 414/2/6 421/2/6
f 420/4/6 413/4/6 421/4/6
f 414/3/6 415/3/6 422/3/6
f 421/2/6 414/2/6 422/2/6
f 415/2/6 416/2/6 423/2/6
f 422/3/6 415/3/6 423/3/6
f 416/4/6 417/4/6 424/4/6
f 423/2/6 416/2/6 424/2/6
f 424/4/6 417/4/6 425/4/6
f 419/4/6 420/4/6 427/4/6
f 420/2/6 421/2/6 428/2/6
f 427/4/6 420/4/6 428/4/6
f 421/3/6 422/3/6 429/3/6
f 428/2/6 421/2/6 429/2/6
f 422/2/6 423/2/6 430/2/6
f 429/3/6 422/3/6 430/3/6
f 423/4/6 424/4/6 431/4/6
f 430/2/6 423/2/6 431/2/6
f 431/4/6 424/4/6 432/4/6
f 426/4/6 427/4/6 436/4/6
f 427/2/6 428/2/6 437/2/6
f 436/4/6 427/4/6 437/4/6
f 428/3/6 429/3/6 438/3/6
f 437/2/6 428/2/6 438/2/6
f 429/2/6 430/2/6 439/2/6
f 438/3/6 429/3/6 439/3/6
f 430/4/6 431/4/6 440/4/6
f 439/2/6 430/2/6 440/2/6
f 440/4/6 431/4/6 441/4/6
f 433/5/6 434/5/6 442/5/6
f 442/5/6 434/5/6 443/5/6
f 435/4/6 436/4/6 446/4/6
f 436/2/6 437/2/6 447/2/6
f 446/4/6 436/4/6 447/4/6
f 437/3/6 438/3/6 448/3/6
f 447/2/6 437/2/6 448/2/6
f 438/2/6 439/2/6 449/2/6
f 448/3/6 438/3/6 449/3/6
f 439/4/6 440/4/6 450/4/6
f 449/2/6 439/2/6 450/2/6
f 450/4/6 440/4/6 451/4/6
f 433/5/6 442/5/6 452/5/6
f 442/4/6 443/4/6 453/4/6
f 452/5/6 442/5/6 453/5/6
f 443/5/6 444/5/6 454/5/6
f 453/4/6 443/4/6 454/4/6
f 454/5/6 444/5/6 455/5/6
f 445/4/6 446/4/6 456/4/6
f 446/2/6 447/2/6 457/2/6
f 456/4/6 446/4/6 457/4/6
f 447/3/6 448/3/6 458/3/6
f 457/2/6 447/2/6 458/2/6
f 448/2/6 449/2/6 459/2/6
f 458/3/6 448/3/6 459/3/6
f 449/4/6 450/4/6 460/4/6
f 459/2/6 449/2/6 460/2/6
f 460/4/6 450/4/6 461/4/6
f 455/5/6 456/5/6 462/5/6
f 456/2/6 457/2/6 462/2/6
f 457/3/6 458/3/6 463/3/6
f 462/2/6 457/2/6 463/2/6
f 458/2/6 459/2/6 464/2/6
f 463/3/6 458/3/6 464/3/6
f 459/4/6 460/4/6 465/4/6
f 464/2/6 459/2/6 465/2/6
f 465/4/6 460/4/6 466/4/6
f 453/5/6 454/5/6 467/5/6
f 454/4/6 455/4/6 468/4/6
f 467/5/6 454/5/6 468/5/6
f 455/5/6 462/5/6 469/5/6
f 468/4/6 455/4/6 469/4/6
f 462/3/6 463/3/6 470/3/6
f 469/5/6 462/5/6 470/5/6
f 463/2/6 464/2/6 471/2/6
f 470/3/6 463/3/6 471/3/6
f 464/4/6 465/4/6 472/4/6
f 471/2/6 464/2/6 472/2/6
f 472/4/6 465/4/6 473/4/6
f 468/5/6 469/5/6 475/5/6
f 469/4/6 470/4/6 476/4/6
f 475/5/6 469/5/6 476/5/6
f 471/5/6 472/5/6 477/5/6
f 476/4/6 470/4/6 477/4/6
f 470/5/6 471/5/6 477/5/6
f 477/5/6 472/5/6 478/5/6
f 474/5/6 475/5/6 481/5/6
f 475/1/6 476/1/6 482/1/6
f 481/5/6 475/5/6 482/5/6
f 476/5/6 477/5/6 483/5/6
f 482/1/6 476/1/6 483/1/6
f 477/4/6 478/4/6 484/4/6
f 483/5/6 477/5/6 484/5/6
f 478/5/6 479/5/6 485/5/6
f 484/4/6 478/4/6 485/4/6
f 485/5/6 479/5/6 486/5/6
f 480/5/6 481/5/6 488/5/6
f 481/1/6 482/1/6 489/1/6
f 488/5/6 481/5/6 489/5/6
f 482/5/6 483/5/6 490/5/6
f 489/1/6 482/1/6 490/1/6
f 490/5/6 483/5/6 491/5/6
f 484/5/6 485/5/6 492/5/6
f 485/4/6 486/4/6 493/4/6
f 492/5/6 485/5/6 493/5/6
f 486/5/6 487/5/6 494/5/6
f 493/4/6 486/4/6 494/4/6
f 480/5/6 488/5/6 495/5/6
f 488/4/6 489/4/6 495/4/6
f 489/5/6 490/5/6 496/5/6
f 495/4/6 489/4/6 496/4/6
f 493/5/6 494/5/6 497/5/6
f 494/5/6 487/5/6 498/5/6
f 497/5/6 494/5/6 498/5/6
f 480/5/6 495/5/6 499/5/6
f 495/5/6 496/5/6 499/5/6
f 496/5/6 490/5/6 500/5/6
f 499/5/6 496/5/6 500/5/6
