# MagicaVoxel @ Ephtracy

# material
mtllib »ðÑæ.mtl
usemtl palette

# normals
vn -1 0 0
vn 1 0 0
vn 0 0 1
vn 0 0 -1
vn 0 -1 0
vn 0 1 0

# texcoords
vt 0.0917969 0.5
vt 0.134766 0.5
vt 0.138672 0.5

# verts
v -6 2 7
v -6 2 2
v -6 3 7
v -6 3 2
v -5 0 6
v -5 0 4
v -5 0 3
v -5 1 7
v -5 1 6
v -5 1 4
v -5 1 3
v -5 1 2
v -5 2 8
v -5 2 7
v -5 2 2
v -5 2 1
v -5 3 8
v -5 3 7
v -5 3 6
v -5 3 3
v -5 3 2
v -5 3 1
v -5 4 6
v -5 4 3
v -4 0 7
v -4 0 6
v -4 0 3
v -4 0 2
v -4 1 7
v -4 1 6
v -4 1 3
v -4 1 2
v -4 3 7
v -4 3 6
v -4 3 3
v -4 3 2
v -4 4 7
v -4 4 6
v -4 4 3
v -4 4 2
v -4 5 6
v -4 5 5
v -4 5 4
v -4 5 3
v -4 6 5
v -4 6 4
v -3 5 6
v -3 5 5
v -3 5 4
v -3 5 3
v -3 6 6
v -3 6 5
v -3 6 4
v -3 6 3
v -3 7 5
v -3 7 4
v -2 4 5
v -2 4 4
v -2 5 5
v -2 5 4
v -3 4 5
v -3 4 4
v -3 5 5
v -3 5 4
v -2 5 6
v -2 5 5
v -2 5 4
v -2 5 3
v -2 6 6
v -2 6 5
v -2 6 4
v -2 6 3
v -2 7 5
v -2 7 4
v -1 0 7
v -1 0 6
v -1 0 3
v -1 0 2
v -1 1 7
v -1 1 6
v -1 1 3
v -1 1 2
v -1 3 7
v -1 3 6
v -1 3 3
v -1 3 2
v -1 4 7
v -1 4 6
v -1 4 3
v -1 4 2
v -1 5 6
v -1 5 5
v -1 5 4
v -1 5 3
v -1 6 5
v -1 6 4
v 0 0 6
v 0 0 5
v 0 0 3
v 0 1 7
v 0 1 6
v 0 1 5
v 0 1 3
v 0 1 2
v 0 2 8
v 0 2 7
v 0 2 2
v 0 2 1
v 0 3 8
v 0 3 7
v 0 3 6
v 0 3 3
v 0 3 2
v 0 3 1
v 0 4 6
v 0 4 3
v 1 2 7
v 1 2 2
v 1 3 7
v 1 3 2
v -5 2 8
v -5 3 8
v 0 2 8
v 0 3 8
v -6 2 7
v -6 3 7
v -5 1 7
v -5 2 7
v -5 3 7
v -4 0 7
v -4 1 7
v -4 3 7
v -4 4 7
v -1 0 7
v -1 1 7
v -1 3 7
v -1 4 7
v 0 1 7
v 0 2 7
v 0 3 7
v 1 2 7
v 1 3 7
v -5 0 6
v -5 1 6
v -5 3 6
v -5 4 6
v -4 0 6
v -4 1 6
v -4 3 6
v -4 4 6
v -4 5 6
v -3 5 6
v -3 6 6
v -2 5 6
v -2 6 6
v -1 0 6
v -1 1 6
v -1 3 6
v -1 4 6
v -1 5 6
v 0 0 6
v 0 1 6
v 0 3 6
v 0 4 6
v -4 5 5
v -4 6 5
v -3 5 5
v -3 6 5
v -3 7 5
v -2 5 5
v -2 6 5
v -2 7 5
v -1 5 5
v -1 6 5
v -3 4 4
v -3 5 4
v -2 4 4
v -2 5 4
v -3 4 5
v -3 5 5
v -2 4 5
v -2 5 5
v -4 5 4
v -4 6 4
v -3 5 4
v -3 6 4
v -3 7 4
v -2 5 4
v -2 6 4
v -2 7 4
v -1 5 4
v -1 6 4
v -5 0 3
v -5 1 3
v -5 3 3
v -5 4 3
v -4 0 3
v -4 1 3
v -4 3 3
v -4 4 3
v -4 5 3
v -3 5 3
v -3 6 3
v -2 5 3
v -2 6 3
v -1 0 3
v -1 1 3
v -1 3 3
v -1 4 3
v -1 5 3
v 0 0 3
v 0 1 3
v 0 3 3
v 0 4 3
v -6 2 2
v -6 3 2
v -5 1 2
v -5 2 2
v -5 3 2
v -4 0 2
v -4 1 2
v -4 3 2
v -4 4 2
v -1 0 2
v -1 1 2
v -1 3 2
v -1 4 2
v 0 1 2
v 0 2 2
v 0 3 2
v 1 2 2
v 1 3 2
v -5 2 1
v -5 3 1
v 0 2 1
v 0 3 1
v -4 0 7
v -1 0 7
v -5 0 6
v -4 0 6
v -1 0 6
v 0 0 6
v -3 0 5
v -2 0 5
v -1 0 5
v 0 0 5
v -5 0 4
v -3 0 4
v -2 0 4
v -5 0 3
v -4 0 3
v -3 0 3
v -1 0 3
v 0 0 3
v -4 0 2
v -1 0 2
v -5 1 7
v -4 1 7
v -1 1 7
v 0 1 7
v -5 1 6
v -4 1 6
v -1 1 6
v 0 1 6
v -5 1 3
v -4 1 3
v -1 1 3
v 0 1 3
v -5 1 2
v -4 1 2
v -1 1 2
v 0 1 2
v -5 2 8
v 0 2 8
v -6 2 7
v -5 2 7
v 0 2 7
v 1 2 7
v -6 2 2
v -5 2 2
v 0 2 2
v 1 2 2
v -5 2 1
v 0 2 1
v -3 5 5
v -2 5 5
v -3 5 4
v -2 5 4
v -5 3 8
v 0 3 8
v -6 3 7
v -5 3 7
v -4 3 7
v -1 3 7
v 0 3 7
v 1 3 7
v -5 3 6
v -4 3 6
v -1 3 6
v 0 3 6
v -5 3 3
v -4 3 3
v -1 3 3
v 0 3 3
v -6 3 2
v -5 3 2
v -4 3 2
v -1 3 2
v 0 3 2
v 1 3 2
v -5 3 1
v 0 3 1
v -4 4 7
v -1 4 7
v -5 4 6
v -4 4 6
v -1 4 6
v 0 4 6
v -3 4 5
v -2 4 5
v -3 4 4
v -2 4 4
v -5 4 3
v -4 4 3
v -1 4 3
v 0 4 3
v -4 4 2
v -1 4 2
v -4 5 6
v -3 5 6
v -2 5 6
v -1 5 6
v -4 5 5
v -3 5 5
v -2 5 5
v -1 5 5
v -4 5 4
v -3 5 4
v -2 5 4
v -1 5 4
v -4 5 3
v -3 5 3
v -2 5 3
v -1 5 3
v -3 6 6
v -2 6 6
v -4 6 5
v -3 6 5
v -2 6 5
v -1 6 5
v -4 6 4
v -3 6 4
v -2 6 4
v -1 6 4
v -3 6 3
v -2 6 3
v -3 7 5
v -2 7 5
v -3 7 4
v -2 7 4

# faces
f 3/2/1 2/2/1 1/2/1
f 4/2/1 2/2/1 3/2/1
f 9/2/1 6/2/1 5/2/1
f 10/3/1 7/3/1 6/3/1
f 10/2/1 6/2/1 9/2/1
f 11/3/1 7/3/1 10/3/1
f 14/2/1 9/2/1 8/2/1
f 14/2/1 12/2/1 11/2/1
f 14/2/1 11/2/1 10/2/1
f 14/2/1 10/2/1 9/2/1
f 15/2/1 12/2/1 14/2/1
f 17/2/1 14/2/1 13/2/1
f 18/2/1 14/2/1 17/2/1
f 21/2/1 16/2/1 15/2/1
f 22/2/1 16/2/1 21/2/1
f 23/2/1 20/2/1 19/2/1
f 24/2/1 20/2/1 23/2/1
f 29/2/1 26/2/1 25/2/1
f 30/2/1 26/2/1 29/2/1
f 31/2/1 28/2/1 27/2/1
f 32/2/1 28/2/1 31/2/1
f 37/2/1 34/2/1 33/2/1
f 38/2/1 34/2/1 37/2/1
f 39/2/1 36/2/1 35/2/1
f 40/2/1 36/2/1 39/2/1
f 41/2/1 39/2/1 38/2/1
f 42/2/1 39/2/1 41/2/1
f 43/2/1 39/2/1 42/2/1
f 44/2/1 39/2/1 43/2/1
f 45/1/1 43/1/1 42/1/1
f 46/1/1 43/1/1 45/1/1
f 51/1/1 48/1/1 47/1/1
f 52/1/1 48/1/1 51/1/1
f 53/1/1 50/1/1 49/1/1
f 54/1/1 50/1/1 53/1/1
f 55/1/1 53/1/1 52/1/1
f 56/1/1 53/1/1 55/1/1
f 59/2/1 58/2/1 57/2/1
f 60/2/1 58/2/1 59/2/1
f 61/2/2 62/2/2 63/2/2
f 63/2/2 62/2/2 64/2/2
f 65/1/2 66/1/2 69/1/2
f 69/1/2 66/1/2 70/1/2
f 67/1/2 68/1/2 71/1/2
f 71/1/2 68/1/2 72/1/2
f 70/1/2 71/1/2 73/1/2
f 73/1/2 71/1/2 74/1/2
f 75/2/2 76/2/2 79/2/2
f 79/2/2 76/2/2 80/2/2
f 77/2/2 78/2/2 81/2/2
f 81/2/2 78/2/2 82/2/2
f 83/2/2 84/2/2 87/2/2
f 87/2/2 84/2/2 88/2/2
f 85/2/2 86/2/2 89/2/2
f 89/2/2 86/2/2 90/2/2
f 88/2/2 89/2/2 91/2/2
f 91/2/2 89/2/2 92/2/2
f 92/2/2 89/2/2 93/2/2
f 93/2/2 89/2/2 94/2/2
f 92/1/2 93/1/2 95/1/2
f 95/1/2 93/1/2 96/1/2
f 97/3/2 98/3/2 101/3/2
f 98/2/2 99/2/2 102/2/2
f 101/3/2 98/3/2 102/3/2
f 102/2/2 99/2/2 103/2/2
f 100/2/2 101/2/2 106/2/2
f 103/2/2 104/2/2 106/2/2
f 102/2/2 103/2/2 106/2/2
f 101/2/2 102/2/2 106/2/2
f 106/2/2 104/2/2 107/2/2
f 105/2/2 106/2/2 109/2/2
f 109/2/2 106/2/2 110/2/2
f 107/2/2 108/2/2 113/2/2
f 113/2/2 108/2/2 114/2/2
f 111/2/2 112/2/2 115/2/2
f 115/2/2 112/2/2 116/2/2
f 117/2/2 118/2/2 119/2/2
f 119/2/2 118/2/2 120/2/2
f 123/2/3 122/2/3 121/2/3
f 124/2/3 122/2/3 123/2/3
f 128/2/3 126/2/3 125/2/3
f 129/2/3 126/2/3 128/2/3
f 131/2/3 128/2/3 127/2/3
f 134/2/3 131/2/3 130/2/3
f 135/2/3 128/2/3 131/2/3
f 135/2/3 131/2/3 134/2/3
f 136/2/3 133/2/3 132/2/3
f 137/2/3 133/2/3 136/2/3
f 138/2/3 128/2/3 135/2/3
f 139/2/3 128/2/3 138/2/3
f 141/2/3 140/2/3 139/2/3
f 142/2/3 140/2/3 141/2/3
f 147/2/3 144/2/3 143/2/3
f 148/2/3 144/2/3 147/2/3
f 149/2/3 146/2/3 145/2/3
f 150/2/3 146/2/3 149/2/3
f 152/2/3 151/2/3 150/2/3
f 154/2/3 152/2/3 150/2/3
f 154/1/3 153/1/3 152/1/3
f 155/1/3 153/1/3 154/1/3
f 159/2/3 154/2/3 150/2/3
f 160/2/3 154/2/3 159/2/3
f 161/3/3 157/3/3 156/3/3
f 162/3/3 157/3/3 161/3/3
f 163/2/3 159/2/3 158/2/3
f 164/2/3 159/2/3 163/2/3
f 167/1/3 166/1/3 165/1/3
f 168/1/3 166/1/3 167/1/3
f 171/1/3 169/1/3 168/1/3
f 172/1/3 169/1/3 171/1/3
f 173/1/3 171/1/3 170/1/3
f 174/1/3 171/1/3 173/1/3
f 177/2/3 176/2/3 175/2/3
f 178/2/3 176/2/3 177/2/3
f 179/2/4 180/2/4 181/2/4
f 181/2/4 180/2/4 182/2/4
f 183/1/4 184/1/4 185/1/4
f 185/1/4 184/1/4 186/1/4
f 186/1/4 187/1/4 189/1/4
f 189/1/4 187/1/4 190/1/4
f 188/1/4 189/1/4 191/1/4
f 191/1/4 189/1/4 192/1/4
f 193/3/4 194/3/4 197/3/4
f 197/3/4 194/3/4 198/3/4
f 195/2/4 196/2/4 199/2/4
f 199/2/4 196/2/4 200/2/4
f 200/2/4 201/2/4 202/2/4
f 200/2/4 202/2/4 204/2/4
f 202/1/4 203/1/4 204/1/4
f 204/1/4 203/1/4 205/1/4
f 200/2/4 204/2/4 209/2/4
f 209/2/4 204/2/4 210/2/4
f 206/2/4 207/2/4 211/2/4
f 211/2/4 207/2/4 212/2/4
f 208/2/4 209/2/4 213/2/4
f 213/2/4 209/2/4 214/2/4
f 215/2/4 216/2/4 218/2/4
f 218/2/4 216/2/4 219/2/4
f 217/2/4 218/2/4 221/2/4
f 220/2/4 221/2/4 224/2/4
f 221/2/4 218/2/4 225/2/4
f 224/2/4 221/2/4 225/2/4
f 222/2/4 223/2/4 226/2/4
f 226/2/4 223/2/4 227/2/4
f 225/2/4 218/2/4 228/2/4
f 228/2/4 218/2/4 229/2/4
f 229/2/4 230/2/4 231/2/4
f 231/2/4 230/2/4 232/2/4
f 233/2/4 234/2/4 235/2/4
f 235/2/4 234/2/4 236/2/4
f 240/2/5 238/2/5 237/2/5
f 241/2/5 238/2/5 240/2/5
f 243/2/5 240/2/5 239/2/5
f 243/2/5 241/2/5 240/2/5
f 244/2/5 241/2/5 243/2/5
f 245/3/5 242/3/5 241/3/5
f 245/2/5 241/2/5 244/2/5
f 246/3/5 242/3/5 245/3/5
f 247/2/5 243/2/5 239/2/5
f 248/3/5 244/3/5 243/3/5
f 248/2/5 243/2/5 247/2/5
f 249/2/5 245/2/5 244/2/5
f 249/3/5 244/3/5 248/3/5
f 249/2/5 246/2/5 245/2/5
f 250/3/5 248/3/5 247/3/5
f 251/3/5 248/3/5 250/3/5
f 252/2/5 249/2/5 248/2/5
f 252/3/5 248/3/5 251/3/5
f 253/2/5 246/2/5 249/2/5
f 253/2/5 249/2/5 252/2/5
f 254/2/5 246/2/5 253/2/5
f 255/2/5 252/2/5 251/2/5
f 255/2/5 253/2/5 252/2/5
f 256/2/5 253/2/5 255/2/5
f 261/2/5 258/2/5 257/2/5
f 262/2/5 258/2/5 261/2/5
f 263/2/5 260/2/5 259/2/5
f 264/2/5 260/2/5 263/2/5
f 269/2/5 266/2/5 265/2/5
f 270/2/5 266/2/5 269/2/5
f 271/2/5 268/2/5 267/2/5
f 272/2/5 268/2/5 271/2/5
f 276/2/5 274/2/5 273/2/5
f 277/2/5 274/2/5 276/2/5
f 279/2/5 276/2/5 275/2/5
f 280/2/5 276/2/5 279/2/5
f 281/2/5 278/2/5 277/2/5
f 282/2/5 278/2/5 281/2/5
f 283/2/5 281/2/5 280/2/5
f 284/2/5 281/2/5 283/2/5
f 287/2/5 286/2/5 285/2/5
f 288/2/5 286/2/5 287/2/5
f 289/2/6 290/2/6 292/2/6
f 292/2/6 290/2/6 293/2/6
f 293/2/6 290/2/6 294/2/6
f 294/2/6 290/2/6 295/2/6
f 291/2/6 292/2/6 297/2/6
f 292/2/6 293/2/6 297/2/6
f 297/2/6 293/2/6 298/2/6
f 295/2/6 296/2/6 299/2/6
f 294/2/6 295/2/6 299/2/6
f 299/2/6 296/2/6 300/2/6
f 291/2/6 297/2/6 301/2/6
f 300/2/6 296/2/6 304/2/6
f 301/2/6 302/2/6 305/2/6
f 291/2/6 301/2/6 305/2/6
f 305/2/6 302/2/6 306/2/6
f 306/2/6 302/2/6 307/2/6
f 303/2/6 304/2/6 308/2/6
f 304/2/6 296/2/6 309/2/6
f 308/2/6 304/2/6 309/2/6
f 309/2/6 296/2/6 310/2/6
f 306/2/6 307/2/6 311/2/6
f 307/2/6 308/2/6 311/2/6
f 308/2/6 309/2/6 311/2/6
f 311/2/6 309/2/6 312/2/6
f 313/2/6 314/2/6 316/2/6
f 316/2/6 314/2/6 317/2/6
f 319/2/6 320/2/6 321/2/6
f 321/2/6 320/2/6 322/2/6
f 315/2/6 316/2/6 323/2/6
f 323/2/6 316/2/6 324/2/6
f 317/2/6 318/2/6 325/2/6
f 325/2/6 318/2/6 326/2/6
f 324/2/6 325/2/6 327/2/6
f 327/2/6 325/2/6 328/2/6
f 329/2/6 330/2/6 333/2/6
f 333/2/6 330/2/6 334/2/6
f 331/2/6 332/2/6 335/2/6
f 335/2/6 332/2/6 336/2/6
f 337/2/6 338/2/6 341/2/6
f 341/2/6 338/2/6 342/2/6
f 339/2/6 340/2/6 343/2/6
f 343/2/6 340/2/6 344/2/6
f 345/1/6 346/1/6 348/1/6
f 348/1/6 346/1/6 349/1/6
f 347/1/6 348/1/6 351/1/6
f 351/1/6 348/1/6 352/1/6
f 349/1/6 350/1/6 353/1/6
f 353/1/6 350/1/6 354/1/6
f 352/1/6 353/1/6 355/1/6
f 355/1/6 353/1/6 356/1/6
f 357/1/6 358/1/6 359/1/6
f 359/1/6 358/1/6 360/1/6
